<?xml version="1.0" standalone="no"?>
<!DOCTYPE svg PUBLIC "-//W3C//DTD SVG 20010904//EN"
 "http://www.w3.org/TR/2001/REC-SVG-20010904/DTD/svg10.dtd">
<svg version="1.0" xmlns="http://www.w3.org/2000/svg"
 width="300.000000pt" height="300.000000pt" viewBox="0 0 300.000000 300.000000"
 preserveAspectRatio="xMidYMid meet">
<metadata>
Created by potrace 1.10, written by Peter Selinger 2001-2011
</metadata>
<g transform="translate(0.000000,300.000000) scale(0.100000,-0.100000)"
fill="#ecede7" stroke="none">
<path d="M1102 2551 c-40 -10 -75 -21 -79 -24 -3 -4 3 -50 14 -104 17 -86 21
-98 39 -95 10 1 65 10 121 20 116 19 111 12 93 118 -20 111 -15 104 -68 103
-26 0 -80 -9 -120 -18z m168 -58 c6 -38 14 -78 17 -90 5 -20 1 -23 -28 -23
-19 0 -52 -5 -74 -10 -22 -5 -42 -7 -44 -4 -10 9 23 23 69 30 25 4 48 8 51 10
3 2 1 34 -5 71 -11 67 -12 68 -46 74 l-35 6 41 2 42 1 12 -67z m-62 15 c7 -7
12 -25 12 -40 0 -22 -7 -31 -35 -42 -19 -8 -44 -24 -57 -35 -30 -29 -36 -27
-48 20 -16 60 -10 92 20 100 41 11 95 10 108 -3z"/>
<path d="M1230 2335 c-41 -7 -93 -17 -115 -23 -22 -5 -52 -13 -67 -16 -39 -9
-37 -36 2 -36 21 0 30 -5 30 -16 0 -9 8 -29 17 -45 24 -40 13 -55 -74 -104
l-70 -40 -37 -164 -37 -163 23 -27 c12 -14 40 -45 62 -68 l39 -42 -26 -68
c-36 -91 -97 -182 -181 -271 l-69 -72 67 25 c85 32 182 81 223 112 18 14 58
56 90 95 31 39 59 65 61 59 9 -28 -97 -147 -178 -199 -30 -20 -86 -48 -125
-64 l-70 -27 89 -1 c79 0 88 -2 84 -17 -48 -175 -126 -419 -146 -457 l-25 -49
28 -23 c15 -12 33 -20 39 -18 7 3 12 -6 13 -18 1 -12 11 -29 23 -38 18 -14 1
-15 -193 -15 -199 0 -212 -1 -212 -18 0 -18 33 -19 944 -19 676 1 947 4 955
12 25 25 -21 31 -211 27 -106 -2 -193 -2 -193 0 0 1 15 9 33 16 41 18 63 43
80 92 l14 39 172 57 c95 31 175 60 178 63 4 3 -25 6 -63 6 -58 0 -96 -9 -247
-61 -158 -55 -211 -67 -181 -40 5 4 80 32 167 61 88 30 156 59 154 64 -3 6
-26 72 -51 147 l-48 136 -175 -64 c-96 -34 -181 -63 -189 -63 -19 0 -18 -8 12
-90 14 -40 23 -74 21 -77 -3 -2 -14 0 -25 6 -12 6 -32 11 -47 11 -14 0 -28 6
-30 13 -2 6 -26 71 -53 144 l-49 132 45 16 c25 8 46 14 47 12 1 -1 14 -36 27
-77 14 -41 29 -74 34 -73 5 1 74 26 154 55 l145 52 -49 137 -49 138 -46 -18
c-25 -10 -93 -35 -151 -56 -58 -21 -106 -39 -108 -41 -2 -1 4 -19 12 -39 9
-21 16 -41 16 -45 0 -6 -66 -30 -83 -30 -2 0 -26 62 -53 138 -43 125 -52 142
-99 190 -29 28 -61 52 -71 52 -13 0 -8 -6 16 -18 46 -23 60 -49 142 -274 137
-378 147 -408 134 -408 -6 0 -30 53 -53 118 -136 385 -183 506 -207 531 -22
21 -37 26 -96 29 -76 5 -97 22 -27 22 71 0 76 9 42 80 -29 60 -29 64 -30 233
l0 172 -47 30 c-45 29 -61 48 -55 70 1 5 8 10 16 10 8 0 17 7 21 15 4 8 14 30
23 48 12 24 14 39 7 52 -16 31 -11 49 15 56 14 3 25 12 25 20 0 17 -27 17
-130 -1z m68 -71 c10 -20 9 -28 -3 -40 -8 -9 -15 -26 -15 -40 0 -27 -26 -32
-62 -13 -11 6 -22 9 -24 6 -9 -8 19 -57 33 -57 16 0 17 -22 1 -38 -9 -9 -16
-8 -30 5 -17 15 -18 14 -18 -15 0 -45 -13 -39 -33 15 -19 52 -16 64 11 39 18
-16 19 -15 14 36 -2 29 -12 62 -21 72 -10 12 -11 16 -2 11 10 -6 12 -2 6 14
-9 29 3 26 15 -4 l9 -24 30 29 c37 38 74 39 89 4z m-148 -230 c0 -9 -11 -14
-31 -14 l-31 0 42 -77 c109 -199 123 -228 102 -208 -24 22 -182 289 -182 307
0 7 14 8 41 4 36 -6 41 -4 35 10 -5 14 -4 15 9 4 8 -7 15 -19 15 -26z m-120
-25 c31 -60 20 -67 -13 -9 -16 28 -23 50 -18 50 6 0 20 -18 31 -41z m214 18
c29 -21 48 -143 26 -177 -7 -11 -19 8 -51 74 -41 85 -42 89 -24 102 23 17 27
17 49 1z m-211 -82 c42 -39 47 -69 23 -150 l-15 -48 66 -74 c61 -68 65 -75 50
-91 -9 -9 -22 -30 -31 -46 -12 -24 -16 -27 -22 -13 -3 9 3 29 16 47 l22 31
-28 31 c-74 80 -93 96 -125 104 l-34 8 35 7 c32 6 33 7 13 14 -32 10 -29 29 3
21 l26 -7 -22 31 c-23 32 -18 40 11 14 19 -17 20 -16 35 56 l7 34 -39 -33
c-40 -34 -86 -123 -77 -148 3 -8 17 -20 32 -28 14 -7 46 -31 70 -52 41 -37 43
-41 35 -74 -9 -41 -7 -59 12 -80 21 -23 19 -29 -37 -91 -49 -55 -142 -122
-160 -116 -4 2 5 23 22 48 45 67 99 180 106 222 5 34 1 44 -38 95 -24 32 -47
60 -51 61 -12 5 -10 43 6 119 8 37 17 85 20 106 4 20 12 37 19 37 7 0 29 -16
50 -35z m118 -151 c20 -30 29 -53 25 -66 -3 -12 -1 -29 5 -39 19 -37 -14 -30
-52 11 -39 42 -44 61 -33 119 8 37 14 34 55 -25z m143 -149 c-5 -12 -35 -30
-38 -23 -32 56 -19 93 20 57 12 -12 20 -27 18 -34z m-9 -102 c14 -21 25 -41
25 -45 0 -16 -17 -7 -28 15 -10 20 -10 19 -5 -10 4 -25 1 -32 -13 -35 -11 -2
-24 5 -32 17 -12 19 -13 19 -6 -4 6 -23 4 -22 -35 10 -22 19 -41 38 -41 43 0
23 35 46 71 46 33 0 42 -5 64 -37z m103 -65 c8 -8 15 -8 27 2 13 11 18 11 30
-1 8 -8 65 -156 128 -329 l114 -315 -28 -26 c-72 -67 -63 -194 18 -241 18 -11
33 -21 33 -22 0 -1 -54 -1 -120 -1 -108 0 -119 2 -114 17 6 20 -16 34 -70 42
-39 6 -61 16 -38 16 7 0 12 5 12 11 0 7 -10 9 -25 7 -26 -5 -35 6 -12 15 17 8
-12 27 -30 20 -7 -3 -13 0 -13 6 0 6 9 11 21 11 17 0 20 5 16 23 -14 57 -19
269 -12 511 7 265 7 266 29 266 12 0 27 -5 34 -12z m-103 -420 c-2 -439 -5
-425 88 -478 40 -23 47 -31 34 -36 -17 -6 -67 19 -67 35 0 12 -51 31 -75 28
-18 -2 -21 6 -27 73 -3 41 -15 146 -27 233 -12 87 -21 173 -21 190 0 18 18 83
40 145 39 110 49 162 32 162 -5 0 -14 -19 -21 -42 -7 -24 -31 -89 -54 -146
l-40 -104 28 -223 c15 -123 26 -246 23 -273 l-5 -50 36 -5 c20 -2 40 -1 45 4
8 8 66 -16 66 -27 0 -10 -294 6 -300 16 -10 16 -77 50 -84 43 -3 -4 -6 -1 -6
5 0 7 7 12 16 12 24 0 11 23 -17 31 -23 7 -23 7 -1 8 27 1 29 21 2 28 -32 8
-23 25 9 18 29 -6 29 -6 56 82 55 184 109 341 150 433 23 52 50 118 60 147 11
30 27 56 39 62 12 5 22 10 22 10 1 1 1 -171 -1 -381z m-55 364 c0 -4 -5 -13
-10 -18 -26 -26 -128 -267 -190 -449 -47 -137 -77 -208 -94 -225 -20 -21 -24
-34 -22 -68 2 -23 0 -42 -3 -42 -3 0 -18 11 -33 25 -26 24 -28 42 -8 70 7 9
52 154 108 349 22 78 24 92 12 124 -10 29 -10 36 1 43 48 27 103 76 150 133
30 36 62 66 72 66 9 0 17 -4 17 -8z m802 -162 c41 -115 42 -113 -54 -148 -121
-43 -147 -48 -154 -25 -3 10 -15 36 -25 58 -11 22 -21 50 -23 62 -4 18 0 21
31 21 45 0 89 32 85 60 -4 25 46 52 88 49 22 -2 29 -12 52 -77z m-162 21 c0
-9 -52 -31 -72 -31 -15 0 3 21 26 30 28 12 46 12 46 1z m347 -315 c37 -109 36
-113 -25 -132 -20 -7 -81 -28 -134 -47 l-96 -35 -30 37 c-16 20 -31 52 -34 71
-3 19 -7 42 -9 50 -3 11 5 15 30 17 42 2 86 33 86 61 1 30 14 41 81 62 92 30
93 29 131 -84z m-227 24 c0 -11 -29 -24 -75 -36 -39 -10 -29 12 13 29 44 19
62 21 62 7z m-210 -183 c0 -2 -9 -3 -20 -4 -28 -2 -68 -34 -82 -65 -18 -38
-29 -35 -15 3 7 17 27 44 45 60 27 24 37 27 52 19 11 -6 20 -12 20 -13z m106
-15 c49 -39 59 -120 23 -186 -19 -36 -19 -39 -3 -51 16 -11 11 -13 -35 -13
l-54 0 30 24 c65 51 77 145 27 212 -27 35 -21 42 12 14z m-93 -34 c45 -24 56
-56 36 -101 -15 -33 -52 -49 -83 -37 -50 19 -61 86 -21 125 27 28 37 30 68 13z
m218 -119 c-27 -22 -43 -25 -35 -5 6 15 46 36 54 29 3 -3 -6 -13 -19 -24z
m-225 -56 c31 5 32 4 21 -13 -23 -38 -59 -34 -95 10 l-22 29 31 -16 c19 -9 44
-13 65 -10z m212 18 c9 -1 8 -7 -4 -26 -18 -28 -42 -33 -50 -10 -9 23 3 44 23
40 10 -2 24 -4 31 -4z"/>
<path d="M1745 716 c-12 -9 -15 -19 -10 -35 9 -30 59 -26 63 6 4 29 -28 47
-53 29z"/>
<path d="M1780 1837 c0 -1 22 -58 48 -127 45 -115 50 -125 73 -122 13 1 39 3
56 5 18 1 32 4 30 7 -1 3 -19 56 -41 117 -33 96 -42 112 -63 116 -26 5 -26 8
-6 -57 11 -34 -20 -12 -32 24 -8 25 -18 34 -38 36 -15 1 -27 2 -27 1z m131
-141 c16 -44 11 -75 -9 -62 -15 9 -35 74 -28 91 9 25 21 17 37 -29z"/>
<path d="M1650 1787 c-58 -22 -106 -41 -107 -42 -3 -2 86 -248 92 -253 7 -7
215 73 215 83 0 9 -88 247 -93 251 -1 1 -49 -17 -107 -39z m98 -34 c21 -41 53
-145 49 -158 -7 -16 -115 -58 -133 -51 -15 6 -57 114 -49 127 4 5 14 9 23 9
26 1 66 35 59 53 -12 32 35 50 51 20z m-68 -18 c0 -2 -13 -11 -29 -20 -32 -16
-54 -3 -24 14 18 11 53 15 53 6z"/>
<path d="M1950 1563 c0 -4 12 -37 26 -73 l25 -65 70 0 c38 0 69 2 69 5 0 3
-11 34 -24 70 l-24 65 -71 3 c-39 2 -71 -1 -71 -5z m114 -49 c26 -25 20 -44
-14 -44 -16 0 -30 3 -30 8 0 4 -3 17 -6 30 -5 17 -2 22 14 22 11 0 28 -7 36
-16z"/>
<path d="M1785 1514 c-66 -24 -125 -46 -132 -48 -8 -3 -3 -26 16 -75 15 -39
30 -73 32 -75 6 -6 265 87 269 97 5 14 -44 147 -55 146 -5 0 -64 -20 -130 -45z
m125 -25 c23 -42 9 -62 -65 -90 -70 -28 -125 -37 -125 -21 0 5 11 15 25 22 14
8 29 27 33 44 7 24 18 34 53 48 58 22 66 22 79 -3z m-150 -48 c0 -9 -41 -23
-48 -16 -2 2 -1 8 3 14 8 13 45 15 45 2z"/>
<path d="M2045 1391 c5 -12 50 -135 90 -249 4 -10 12 -9 40 2 20 9 42 13 50
10 23 -9 18 20 -24 136 -35 95 -41 105 -65 108 l-27 3 16 -37 c18 -43 18 -44
4 -44 -6 0 -18 18 -26 39 -11 27 -23 40 -40 44 -19 3 -23 1 -18 -12z m129
-137 c16 -48 14 -64 -8 -64 -15 0 -41 83 -31 99 12 21 23 11 39 -35z"/>
<path d="M2274 985 l50 -145 33 0 33 0 -19 48 c-10 26 -33 91 -51 145 -33 95
-34 97 -65 97 l-32 0 51 -145z"/>
<path d="M793 458 c6 -19 1278 -19 1285 0 3 9 -130 12 -643 12 -513 0 -646 -3
-642 -12z"/>
<path d="M1007 398 c-8 -5 -7 -9 3 -13 23 -8 840 -1 840 8 0 10 -827 15 -843
5z"/>
</g>
</svg>
