<?xml version="1.0" encoding="UTF-8" standalone="no"?>

<svg
   height="100%"
   stroke-miterlimit="10"
   style="fill-rule:nonzero;clip-rule:evenodd;stroke-linecap:round;stroke-linejoin:round;"
   version="1.1"
   viewBox="0 0 1024 1024"
   width="100%"
   xml:space="preserve"
   id="svg152"
   sodipodi:docname="Gentleman Moving Logo.svg"
   inkscape:version="1.2.2 (732a01da63, 2022-12-09)"
   xmlns:inkscape="http://www.inkscape.org/namespaces/inkscape"
   xmlns:sodipodi="http://sodipodi.sourceforge.net/DTD/sodipodi-0.dtd"
   xmlns="http://www.w3.org/2000/svg"
   xmlns:svg="http://www.w3.org/2000/svg"
   xmlns:vectornator="http://vectornator.io"><sodipodi:namedview
   id="namedview154"
   pagecolor="#505050"
   bordercolor="#ffffff"
   borderopacity="1"
   inkscape:showpageshadow="0"
   inkscape:pageopacity="0"
   inkscape:pagecheckerboard="1"
   inkscape:deskcolor="#505050"
   showgrid="false"
   inkscape:zoom="0.75580218"
   inkscape:cx="541.14689"
   inkscape:cy="338.05142"
   inkscape:window-width="1920"
   inkscape:window-height="991"
   inkscape:window-x="-9"
   inkscape:window-y="-9"
   inkscape:window-maximized="1"
   inkscape:current-layer="svg152" />
<defs
   id="defs79" />
<g
   id="Layer-1"
   vectornator:layerName="Layer 1"
   transform="matrix(2.0447219,0,0,1.9636819,-87.341329,-486.72543)">
<g
   opacity="1"
   vectornator:layerName="Group 2"
   id="g125">
<path
   d="m 117.973,336.108 v 293.156 h 12.625 c -0.889,1.511 -1.575,3.143 -2.031,4.875 h 5.156 4 1.532 67.656 158.156 67.688 1.531 4 5.156 c -0.456,-1.733 -1.142,-3.364 -2.031,-4.875 h 12.625 V 336.108 Z"
   fill="#b6dcfe"
   fill-rule="nonzero"
   opacity="1"
   stroke="none"
   id="path81" />
<path
   d="m 130.598,629.264 c -0.889,1.511 -1.575,3.143 -2.031,4.875 -0.415,1.577 -0.719,3.201 -0.719,4.906 h 4.938 4.937 4.938 59.312 4.938 158.156 4.969 59.281 4.969 4.937 4.938 c 0,-1.705 -0.304,-3.33 -0.719,-4.906 -0.456,-1.733 -1.142,-3.364 -2.031,-4.875 h -6.031 -11 -276.75 -11 z"
   fill="#4788c7"
   fill-rule="nonzero"
   opacity="1"
   stroke="none"
   id="path83" />
<path
   d="m 108.067,326.327 v 312.718 h 19.781 c 0,-1.705 0.304,-3.329 0.719,-4.906 0.456,-1.733 1.142,-3.364 2.031,-4.875 H 117.973 V 336.108 h 336.063 v 293.156 h -12.625 c 0.889,1.511 1.575,3.143 2.031,4.875 0.415,1.577 0.719,3.201 0.719,4.906 h 19.781 V 326.327 Z"
   fill="#4788c7"
   fill-rule="nonzero"
   opacity="1"
   stroke="none"
   id="path85" />
<path
   d="m 157.503,497.338 c -8.174,0 -14.827,-6.576 -14.827,-14.658 v -19.545 c 0,-8.082 6.653,-14.659 14.827,-14.659 h 257 c 8.175,0 14.827,6.577 14.827,14.659 v 19.545 c 0,8.082 -6.652,14.658 -14.827,14.658 z"
   fill="#98ccfd"
   fill-rule="nonzero"
   opacity="1"
   stroke="none"
   vectornator:layerName="path"
   id="path87" />
<path
   d="m 414.503,453.362 c 5.447,0 9.885,4.388 9.885,9.773 v 19.545 c 0,5.384 -4.438,9.772 -9.885,9.772 h -257 c -5.446,0 -9.885,-4.388 -9.885,-9.772 v -19.545 c 0,-5.385 4.439,-9.773 9.885,-9.773 h 257 m 0,-9.772 h -257 c -10.922,0 -19.769,8.746 -19.769,19.545 v 19.545 c 0,10.798 8.847,19.545 19.769,19.545 h 257 c 10.923,0 19.77,-8.747 19.77,-19.545 v -19.545 c 0,-10.799 -8.847,-19.545 -19.77,-19.545 z"
   fill="#4788c7"
   fill-rule="nonzero"
   opacity="1"
   stroke="none"
   vectornator:layerName="path"
   id="path89" />
<path
   d="m 172.696,546.201 8.945,-124.413 c 1.503,-17.894 16.953,-31.946 35.17,-31.946 h 138.385 c 18.217,0 33.667,14.052 35.179,31.995 l 8.936,124.364 z"
   fill="#dff0fe"
   fill-rule="nonzero"
   opacity="1"
   stroke="none"
   vectornator:layerName="path"
   id="path91" />
<path
   d="m 355.196,394.728 c 15.667,0 28.952,12.088 30.247,27.402 l 8.56,119.184 H 178.004 l 8.56,-119.067 c 1.295,-15.431 14.58,-27.519 30.247,-27.519 h 138.385 m 0,-9.773 H 216.811 c -20.936,0 -38.372,15.861 -40.102,36.481 l -9.321,129.651 h 237.231 l -9.321,-129.651 c -1.73,-20.62 -19.177,-36.481 -40.102,-36.481 z"
   fill="#4788c7"
   fill-rule="nonzero"
   opacity="1"
   stroke="none"
   vectornator:layerName="path"
   id="path93" />
<path
   d="m 147.618,692.787 c -2.728,0 -4.942,-2.199 -4.942,-4.886 v -51.657 h 59.308 v 51.657 c 0,2.687 -2.214,4.886 -4.942,4.886 z"
   fill="#b6dcfe"
   fill-rule="nonzero"
   opacity="1"
   stroke="none"
   vectornator:layerName="path"
   id="path95" />
<path
   d="m 197.042,641.13 v 46.771 H 147.618 V 641.13 h 49.424 m 9.884,-9.772 h -69.192 v 56.543 c 0,5.394 4.428,9.772 9.884,9.772 h 49.424 c 5.456,0 9.884,-4.378 9.884,-9.772 z"
   fill="#4788c7"
   fill-rule="nonzero"
   opacity="1"
   stroke="none"
   vectornator:layerName="path"
   id="path97" />
<path
   d="m 374.965,692.787 c -2.728,0 -4.942,-2.199 -4.942,-4.886 v -51.657 h 59.307 v 51.657 c 0,2.687 -2.214,4.886 -4.942,4.886 z"
   fill="#b6dcfe"
   fill-rule="nonzero"
   opacity="1"
   stroke="none"
   vectornator:layerName="path"
   id="path99" />
<path
   d="m 424.388,641.13 v 46.771 H 374.965 V 641.13 h 49.423 m 9.885,-9.772 H 365.08 v 56.543 c 0,5.394 4.429,9.772 9.885,9.772 h 49.423 c 5.456,0 9.885,-4.378 9.885,-9.772 z"
   fill="#4788c7"
   fill-rule="nonzero"
   opacity="1"
   stroke="none"
   vectornator:layerName="path"
   id="path101" />
<g
   opacity="1"
   vectornator:layerName="g"
   id="g107">
<path
   d="m 147.618,624.38 c -2.728,0 -4.942,-2.199 -4.942,-4.886 v -78.18 c 0,-18.86 15.519,-34.203 34.596,-34.203 h 217.462 c 19.077,0 34.596,15.343 34.596,34.203 v 78.18 c 0,2.687 -2.214,4.886 -4.942,4.886 z"
   fill="#98ccfd"
   fill-rule="nonzero"
   opacity="1"
   stroke="none"
   vectornator:layerName="path"
   id="path103" />
<path
   d="m 394.734,511.997 c 16.349,0 29.654,13.154 29.654,29.317 v 78.18 h -276.77 v -78.18 c 0,-16.163 13.305,-29.317 29.654,-29.317 h 217.462 m 0,-9.772 H 177.272 c -21.835,0 -39.538,17.502 -39.538,39.089 v 78.18 c 0,5.394 4.428,9.772 9.884,9.772 h 276.77 c 5.456,0 9.885,-4.378 9.885,-9.772 v -78.18 c 0,-21.587 -17.704,-39.089 -39.539,-39.089 z"
   fill="#4788c7"
   fill-rule="nonzero"
   opacity="1"
   stroke="none"
   vectornator:layerName="path"
   id="path105" />
</g>
<g
   opacity="1"
   vectornator:layerName="g"
   id="g113">
<path
   d="m 147.618,663.47 c -8.174,0 -14.826,-6.577 -14.826,-14.659 v -9.772 c 0,-8.082 6.652,-14.659 14.826,-14.659 h 276.77 c 8.175,0 14.827,6.577 14.827,14.659 v 9.772 c 0,8.082 -6.652,14.659 -14.827,14.659 z"
   fill="#dff0fe"
   fill-rule="nonzero"
   opacity="1"
   stroke="none"
   vectornator:layerName="path"
   id="path109" />
<path
   d="m 424.388,629.266 c 5.446,0 9.885,4.388 9.885,9.773 v 9.772 c 0,5.385 -4.439,9.773 -9.885,9.773 h -276.77 c -5.446,0 -9.884,-4.388 -9.884,-9.773 v -9.772 c 0,-5.385 4.438,-9.773 9.884,-9.773 h 276.77 m 0,-9.772 h -276.77 c -10.922,0 -19.769,8.746 -19.769,19.545 v 9.772 c 0,10.799 8.847,19.545 19.769,19.545 h 276.77 c 10.923,0 19.769,-8.746 19.769,-19.545 v -9.772 c 0,-10.799 -8.846,-19.545 -19.769,-19.545 z"
   fill="#4788c7"
   fill-rule="nonzero"
   opacity="1"
   stroke="none"
   vectornator:layerName="path"
   id="path111" />
</g>
<path
   d="m 404.619,560.859 v 48.862 h -29.654 v -48.862 z"
   fill="#ffffff"
   fill-rule="nonzero"
   opacity="1"
   stroke="none"
   vectornator:layerName="path"
   id="path115" />
<path
   d="m 197.042,560.859 v 48.862 h -29.654 v -48.862 z"
   fill="#ffffff"
   fill-rule="nonzero"
   opacity="1"
   stroke="none"
   vectornator:layerName="path"
   id="path117" />
<g
   opacity="1"
   vectornator:layerName="g"
   id="g123">
<path
   d="m 221.753,624.38 v -63.521 c 0,-8.082 6.653,-14.658 14.827,-14.658 h 98.846 c 8.175,0 14.827,6.576 14.827,14.658 v 63.521 z"
   fill="#dff0fe"
   fill-rule="nonzero"
   opacity="1"
   stroke="none"
   vectornator:layerName="path"
   id="path119" />
<path
   d="m 335.426,551.087 c 5.447,0 9.885,4.388 9.885,9.772 v 58.635 H 226.695 v -58.635 c 0,-5.384 4.439,-9.772 9.885,-9.772 h 98.846 m 0,-9.773 H 236.58 c -10.922,0 -19.769,8.747 -19.769,19.545 v 68.407 h 138.385 v -68.407 c 0,-10.798 -8.847,-19.545 -19.77,-19.545 z"
   fill="#4788c7"
   fill-rule="nonzero"
   opacity="1"
   stroke="none"
   vectornator:layerName="path"
   id="path121" />
</g>
</g>
<g
   opacity="1"
   vectornator:layerName="Black Hat"
   id="g129">
<path
   d="m 310.501,421.678 c 0,0 6.115,-2.426 16.154,-2.434 10.039,-0.008 16.158,2.409 16.158,2.409 0,0 2.009,-14.288 2.007,-16.311 -0.003,-3.908 -8.142,-7.069 -18.181,-7.061 -10.039,0.007 -18.173,3.181 -18.17,7.089 0.002,2.023 2.032,16.308 2.032,16.308 z m 16.173,22.722 c 13.384,-0.01 24.231,-4.242 24.227,-9.452 -0.004,-5.209 -10.858,-9.425 -24.241,-9.415 -13.383,0.01 -24.231,4.243 -24.227,9.452 0.004,5.209 10.858,9.425 24.241,9.415 z m -0.009,-12.578 c 7.807,-0.006 14.138,1.866 14.14,4.182 10e-4,2.316 -6.326,4.198 -14.134,4.203 -7.807,0.006 -14.138,-1.865 -14.139,-4.181 -0.002,-2.317 6.325,-4.198 14.133,-4.204 z"
   fill="#4788c7"
   fill-rule="nonzero"
   opacity="1"
   stroke="none"
   vectornator:layerName="path"
   id="path127" />
</g>
<g
   opacity="1"
   vectornator:layerName="Black Hat 1"
   id="g133">
<path
   d="m 229.746,421.678 c 0,0 6.115,-2.426 16.154,-2.434 10.039,-0.008 16.158,2.409 16.158,2.409 0,0 2.009,-14.288 2.007,-16.311 -0.003,-3.908 -8.142,-7.069 -18.181,-7.061 -10.039,0.007 -18.173,3.181 -18.17,7.089 0.002,2.023 2.032,16.308 2.032,16.308 z m 16.173,22.722 c 13.384,-0.01 24.231,-4.242 24.227,-9.452 -0.004,-5.209 -10.858,-9.425 -24.241,-9.415 -13.383,0.01 -24.231,4.243 -24.227,9.452 0.004,5.209 10.858,9.425 24.241,9.415 z m -0.009,-12.578 c 7.807,-0.006 14.138,1.866 14.14,4.182 10e-4,2.316 -6.326,4.198 -14.134,4.203 -7.807,0.006 -14.138,-1.865 -14.139,-4.181 -0.002,-2.317 6.325,-4.198 14.133,-4.204 z"
   fill="#4788c7"
   fill-rule="nonzero"
   opacity="1"
   stroke="none"
   vectornator:layerName="path"
   id="path131" />
</g>
<g
   opacity="1"
   vectornator:layerName="Group 1"
   id="g143">
<path
   d="m 335.217,467.085 -4.063,11.312 3.094,25.969 c 8.577,0.14 14.235,0.142 19.938,-0.031 0.71,-0.022 1.372,-0.092 3.593,-0.375 0.76,-0.097 1.23,-0.133 1.75,-0.188 V 489.71 c 0,-12.472 -10.893,-22.625 -24.312,-22.625 z"
   fill="#4788c7"
   fill-rule="nonzero"
   opacity="1"
   stroke="none"
   id="path135" />
<path
   d="m 318.967,467.085 c -13.419,0 -24.313,10.153 -24.313,22.625 v 14.375 c 0.491,0.003 0.914,0.031 1.407,0.031 5.733,0 15.533,0 19.593,0 0.958,0 2.602,0.043 4.282,0.063 l 3.093,-25.782 z"
   fill="#4788c7"
   fill-rule="nonzero"
   opacity="1"
   stroke="none"
   id="path137" />
<path
   d="m 253.042,467.085 -4.062,11.312 3.094,25.969 c 8.576,0.14 14.234,0.142 19.937,-0.031 0.71,-0.022 1.372,-0.092 3.594,-0.375 0.759,-0.097 1.229,-0.133 1.75,-0.188 V 489.71 c 0,-12.472 -10.894,-22.625 -24.313,-22.625 z"
   fill="#4788c7"
   fill-rule="nonzero"
   opacity="1"
   stroke="none"
   vectornator:layerName="Curve 1"
   id="path139" />
<path
   d="m 236.792,467.085 c -13.419,0 -24.312,10.153 -24.312,22.625 v 14.375 c 0.491,0.003 0.913,0.031 1.406,0.031 5.734,0 15.534,0 19.594,0 0.958,0 2.602,0.043 4.281,0.063 l 3.094,-25.782 z"
   fill="#4788c7"
   fill-rule="nonzero"
   opacity="1"
   stroke="none"
   vectornator:layerName="Curve 3"
   id="path141" />
</g>
<path
   d="m 227.335,444.4 c 0,-9.986 8.317,-18.082 18.577,-18.082 10.26,0 18.577,8.096 18.577,18.082 0,9.987 -8.317,18.083 -18.577,18.083 -10.26,0 -18.577,-8.096 -18.577,-18.083 z"
   fill="#4788c7"
   fill-rule="nonzero"
   opacity="1"
   stroke="none"
   vectornator:layerName="Oval 1"
   id="path145" />
<path
   d="m 308.09,444.4 c 0,-9.986 8.317,-18.082 18.577,-18.082 10.26,0 18.577,8.096 18.577,18.082 0,9.987 -8.317,18.083 -18.577,18.083 -10.26,0 -18.577,-8.096 -18.577,-18.083 z"
   fill="#4788c7"
   fill-rule="nonzero"
   opacity="1"
   stroke="none"
   vectornator:layerName="Oval 2"
   id="path147" />
<path
   d="m 244.46,471.488 c -0.375,1.011 -1.451,2.581 -0.281,3.52 1.735,1.392 2.822,-5.363 0.002,-1.848"
   fill="none"
   opacity="1"
   stroke="#f2f2f3"
   stroke-linecap="butt"
   stroke-linejoin="round"
   stroke-opacity="0"
   stroke-width="0.590749"
   vectornator:layerName="Curve 1"
   id="path149" />
</g>
</svg>
