<?xml version="1.0" standalone="no"?>
<!DOCTYPE svg PUBLIC "-//W3C//DTD SVG 20010904//EN"
 "http://www.w3.org/TR/2001/REC-SVG-20010904/DTD/svg10.dtd">
<svg version="1.0" xmlns="http://www.w3.org/2000/svg"
 width="1024.000000pt" height="1024.000000pt" viewBox="0 0 1024.000000 1024.000000"
 preserveAspectRatio="xMidYMid meet">

<g transform="translate(0.000000,1024.000000) scale(0.100000,-0.100000)"
fill="#FFFFFF" stroke="none">
<path d="M5445 8664 c-22 -2 -89 -9 -150 -14 -295 -28 -601 -109 -848 -223
-126 -59 -289 -166 -400 -264 l-37 -32 31 -92 c92 -274 149 -728 149 -1180 l0
-278 -56 -7 c-75 -9 -187 1 -246 21 -64 23 -138 91 -177 165 l-32 60 -32 -22
c-52 -37 -124 -113 -160 -170 -83 -129 -104 -312 -54 -456 47 -136 151 -285
259 -372 59 -47 267 -160 295 -160 11 0 13 -235 13 -1207 0 -665 -3 -1225 -6
-1245 l-7 -38 -302 0 c-166 0 -505 3 -753 7 l-452 6 0 1124 0 1123 133 64
c181 87 585 284 735 358 67 33 122 65 122 70 0 6 -13 27 -28 47 -16 20 -39 55
-52 78 l-24 43 -355 -182 c-196 -101 -436 -223 -533 -273 l-178 -90 0 -1166
c0 -641 -3 -1214 -7 -1274 l-6 -108 136 5 c134 4 137 4 137 -16 0 -12 -9 -95
-20 -186 -28 -229 -31 -210 34 -210 l54 0 0 -117 c0 -136 18 -226 62 -312 l30
-60 -43 -5 c-23 -3 -152 -12 -287 -21 -282 -19 -334 -25 -323 -36 16 -16 704
-57 1353 -81 472 -17 3126 -18 3630 0 536 18 1269 65 1300 83 13 7 13 8 0 9
-8 0 -87 7 -175 15 -88 7 -286 19 -440 26 -154 7 -282 14 -284 15 -2 2 12 22
32 46 40 50 63 92 87 162 l17 51 104 5 c79 4 115 11 149 28 70 34 161 112 187
161 21 40 23 57 23 188 0 157 -9 195 -58 246 -15 16 -44 38 -64 48 l-38 19 0
458 0 458 -186 185 -186 186 -9 239 c-10 271 -32 593 -56 832 -8 89 -13 165
-10 168 3 3 25 10 49 15 293 64 528 315 529 565 1 133 -62 259 -177 358 l-47
40 -19 -25 c-71 -90 -93 -110 -152 -139 -98 -49 -187 -58 -321 -35 l-108 18 7
166 c13 327 39 569 92 851 43 230 73 348 124 492 22 62 40 116 40 120 0 13
-100 119 -169 181 -272 242 -727 418 -1221 472 -139 15 -541 27 -625 19z m555
-229 c125 -16 286 -48 298 -60 3 -3 -14 -2 -38 2 -75 13 -732 9 -865 -5 -325
-36 -607 -107 -848 -215 -59 -26 -68 -33 -63 -51 17 -61 38 -323 45 -561 11
-359 6 -363 -29 -30 -12 110 -28 229 -36 265 l-14 65 6 -115 c3 -63 9 -182 14
-265 5 -82 9 -219 10 -303 l0 -152 -32 -20 -33 -20 -2 68 c-10 287 -44 586
-98 872 -15 74 -29 149 -31 165 -5 28 -1 32 73 77 250 149 543 242 893 282 74
9 164 18 200 20 118 7 424 -4 550 -19z m-230 -1395 c212 -16 353 -38 520 -81
258 -67 497 -156 648 -242 60 -34 72 -45 68 -62 -3 -11 -6 -71 -7 -133 -1 -62
-5 -114 -9 -117 -4 -2 -70 14 -146 36 -205 59 -378 100 -769 178 -549 110
-693 126 -1057 118 -289 -6 -442 -29 -590 -92 -28 -11 -23 47 5 82 13 15 26
36 30 45 5 15 2 16 -19 7 -32 -12 -44 -5 -37 21 8 30 163 102 313 145 313 90
674 123 1050 95z m-2019 -605 c117 -74 272 -73 569 3 432 111 552 126 919 119
284 -6 410 -19 731 -77 162 -29 295 -57 745 -160 94 -21 217 -48 275 -60 212
-45 105 -37 -145 10 -1018 193 -983 187 -1308 220 -301 31 -563 25 -772 -16
-44 -8 -186 -40 -315 -69 -364 -84 -388 -88 -513 -83 -96 3 -120 7 -172 31
-33 16 -78 45 -99 65 l-39 37 32 -48 c33 -48 80 -85 136 -105 17 -6 23 -11 15
-11 -8 0 -37 10 -65 23 -53 25 -103 72 -128 121 l-15 30 -9 -30 c-4 -16 -8
-59 -7 -95 1 -75 30 -151 84 -215 18 -22 7 -14 -24 18 -43 44 -59 70 -72 114
-22 77 -15 172 20 248 l26 57 47 -52 c26 -29 63 -63 84 -75z m1139 -358 c0 -7
9 -91 20 -187 31 -277 90 -921 110 -1205 25 -364 25 -361 97 -498 105 -196
133 -283 35 -107 -20 36 -50 86 -68 112 -66 97 -71 116 -93 368 -58 650 -96
1018 -133 1288 -21 155 -23 163 -42 158 -12 -3 -122 -48 -246 -100 l-225 -95
1 -628 c0 -658 -6 -623 -24 127 l-9 335 -1 -340 c-7 -1219 -14 -1640 -30
-1657 -8 -10 -19 -18 -24 -18 -4 0 -7 496 -6 1103 l3 1102 50 24 c69 34 557
230 573 231 6 0 12 -6 12 -13z m740 -8 c562 -51 1093 -149 1522 -280 111 -34
99 -14 117 -194 10 -93 15 -159 41 -485 5 -69 14 -233 20 -365 18 -428 21
-465 35 -479 11 -11 3 -14 -48 -20 -34 -3 -74 -9 -88 -12 l-26 -6 -12 189 c-7
103 -17 211 -23 238 -14 70 -53 138 -110 191 l-48 45 20 29 c80 112 97 298 39
417 -28 57 -102 138 -155 169 -24 14 -41 30 -38 36 6 10 94 4 139 -9 41 -12
-16 36 -81 68 -55 27 -74 31 -143 31 -68 0 -92 -6 -182 -42 -173 -69 -249
-132 -303 -251 -87 -191 -23 -419 150 -528 89 -57 145 -74 245 -75 l87 -1 12
-33 c19 -54 108 -179 153 -216 23 -19 61 -44 85 -56 33 -17 42 -27 42 -49 0
-14 3 -62 6 -106 l7 -80 -59 -18 c-88 -27 -218 -104 -293 -173 -64 -59 -67
-60 -96 -48 -53 23 -144 17 -204 -12 l-52 -26 -22 20 c-64 58 -234 133 -369
163 -162 36 -489 23 -502 -19 -16 -52 -28 -252 -22 -362 10 -218 67 -415 161
-561 24 -37 48 -76 54 -88 l12 -21 -206 0 -205 0 0 431 0 431 -96 205 -96 205
-18 252 c-11 138 -28 359 -39 491 -11 132 -25 308 -31 390 -6 83 -15 186 -20
230 -5 44 -14 143 -20 220 -6 77 -13 151 -16 164 l-5 24 283 -6 c156 -4 335
-12 398 -18z m-810 -344 c11 -137 22 -266 25 -285 11 -73 67 -804 88 -1134 l2
-39 -70 -14 c-177 -34 -460 -83 -479 -83 -21 0 -21 4 -24 208 -2 125 0 217 7
232 7 18 10 -35 10 -194 1 -204 2 -218 19 -211 35 15 171 48 330 80 90 18 165
35 167 37 2 2 -1 46 -6 98 -4 52 -15 185 -24 295 -8 110 -26 331 -39 490 -53
630 -61 766 -45 775 8 5 15 6 16 2 1 -4 11 -119 23 -257z m1983 -241 c70 -24
157 -108 192 -186 98 -216 -70 -472 -311 -472 -227 -1 -396 242 -315 453 72
188 245 270 434 205z m179 -711 c22 -21 49 -56 59 -78 21 -48 36 -165 21 -165
-17 0 -108 106 -141 164 -35 61 -39 90 -13 105 25 15 28 14 74 -26z m-2002
-715 c25 -34 62 -89 82 -122 l38 -61 -1 -225 c-1 -124 -4 -263 -8 -310 l-6
-85 -8 130 c-4 72 -7 210 -7 307 l0 177 -71 118 c-39 65 -73 121 -76 126 -2 4
-1 7 4 7 4 0 28 -28 53 -62z m2423 -18 c9 -36 22 -111 28 -168 10 -86 9 -121
-6 -224 -16 -115 -42 -225 -50 -216 -2 2 1 21 6 43 5 22 11 108 13 190 3 83 1
123 -2 90 l-7 -60 -8 80 c-9 96 -44 178 -87 200 -19 10 -59 15 -116 15 -93 0
-208 -31 -315 -85 -28 -15 -53 -24 -55 -22 -8 8 95 78 164 112 116 57 339 119
402 111 9 -1 21 -25 33 -66z m317 -562 l0 -428 -857 0 c-471 0 -854 2 -852 4
2 2 41 18 85 35 102 39 192 97 259 166 l51 52 37 -19 c76 -39 188 -36 251 7
27 18 37 21 43 11 28 -45 190 -135 341 -190 92 -33 99 -33 107 4 4 16 10 32
15 35 5 3 43 -2 85 -12 93 -20 90 -22 164 118 60 113 93 231 111 398 12 109 9
286 -6 376 l-7 40 86 -84 87 -85 0 -428z m-3121 523 c16 -10 17 -10 -87 -31
-65 -12 -82 -13 -82 -1 0 9 99 38 135 40 11 0 27 -3 34 -8z m1381 -41 c54 -11
136 -36 182 -56 87 -37 172 -83 166 -90 -2 -2 -28 5 -57 16 -29 11 -95 31
-147 45 -87 23 -105 24 -214 17 -135 -9 -158 -21 -182 -91 -13 -39 -16 -171
-5 -236 l6 -40 -14 31 c-19 43 -29 149 -20 219 5 45 14 65 40 94 31 33 39 36
107 43 68 6 66 6 -26 4 -81 -2 -101 -5 -111 -20 -25 -33 -38 -180 -26 -275 11
-85 53 -249 85 -326 l16 -40 -25 30 c-31 37 -79 152 -107 253 -17 62 -21 107
-22 227 -1 164 5 201 32 208 49 13 231 6 322 -13z m-1369 -74 c-17 -18 -37
-25 -84 -30 -34 -4 -79 -10 -99 -13 -31 -4 -38 -2 -38 11 0 9 3 16 8 16 26 0
198 32 211 40 25 14 26 2 2 -24z m2029 -58 c65 -34 84 -66 88 -151 3 -50 -1
-83 -11 -107 l-15 -35 -2 40 -2 40 -9 -31 c-5 -17 -18 -39 -30 -50 l-22 -19
15 25 c38 61 30 166 -16 209 -13 12 -42 25 -65 28 -35 5 -44 2 -71 -25 -33
-33 -40 -84 -20 -138 18 -45 2 -40 -20 7 l-20 44 5 -50 4 -50 -16 35 c-24 52
-28 129 -9 173 29 71 133 97 216 55z m-2010 -279 c49 -22 110 -76 141 -125 53
-87 86 -267 73 -409 l-7 -80 -14 80 c-26 156 -78 268 -160 351 -135 134 -287
106 -407 -74 -86 -130 -131 -281 -145 -490 -5 -74 -13 -137 -17 -140 -3 -4 -4
74 -1 173 5 156 10 196 36 298 63 247 172 390 330 434 54 14 109 9 171 -18z
m-39 -451 c74 -102 110 -211 108 -329 l-1 -74 -14 90 c-20 131 -47 211 -98
288 -48 73 -45 93 5 25z m-127 -140 c20 -20 46 -62 62 -103 25 -63 28 -83 29
-190 0 -152 -25 -243 -84 -305 -43 -45 -66 -49 -105 -19 -80 63 -118 272 -81
449 18 86 44 139 85 174 41 34 53 33 94 -6z m-1455 -204 c34 -90 57 -234 31
-194 -5 8 -10 27 -10 42 0 43 -47 179 -80 233 l-31 50 34 -36 c19 -20 44 -62
56 -95z m4823 115 c31 -17 48 -71 47 -151 0 -98 -15 -139 -59 -160 -33 -17
-121 -18 -1413 -18 l-1379 0 -29 29 c-29 29 -29 31 -29 139 0 104 1 112 26
141 l26 31 1395 0 c980 0 1400 -3 1415 -11z m-4957 -135 c72 -72 84 -281 23
-401 -28 -57 -57 -70 -92 -42 -40 32 -59 112 -54 233 7 165 66 266 123 210z
m356 -274 c-7 -38 -9 -28 -9 60 0 99 1 101 9 45 5 -33 5 -79 0 -105z m1503 55
c-15 -136 -51 -230 -115 -300 -43 -47 -119 -95 -119 -75 0 5 5 10 10 10 23 0
108 93 134 146 29 59 76 227 76 273 0 20 2 23 10 11 5 -8 7 -37 4 -65z m-1678
-105 c-8 -93 -40 -175 -88 -224 l-38 -41 35 60 c36 60 75 169 75 209 0 11 3
31 6 44 12 43 17 21 10 -48z m662 -89 c73 -59 187 -59 270 -1 31 22 54 30 85
30 l43 0 13 -52 c8 -28 30 -84 50 -124 l37 -73 -81 -5 c-44 -3 -221 -7 -392
-9 l-313 -3 15 21 c33 45 65 116 81 179 l16 66 70 0 c62 0 73 -3 106 -29z
m2730 -35 c13 -34 42 -93 66 -130 l44 -66 -663 0 -664 0 35 58 c19 31 45 90
57 130 l21 72 541 0 540 0 23 -64z"/>
<path d="M5340 5688 c-94 -33 -180 -99 -226 -173 -15 -23 -15 -27 -3 -17 30
23 170 52 254 52 135 0 223 -30 498 -168 13 -7 7 19 -18 72 -36 77 -131 176
-207 216 -55 30 -74 34 -148 37 -69 3 -97 -1 -150 -19z"/>
<path d="M5380 5431 c-112 -34 -179 -129 -180 -251 0 -151 108 -263 255 -263
70 -1 136 26 178 71 l29 30 -58 -29 c-67 -34 -119 -42 -69 -10 107 67 145 189
90 297 -14 27 -25 50 -25 52 0 1 13 -4 29 -12 28 -15 64 -49 96 -91 14 -19 15
-19 5 7 -33 95 -108 178 -176 197 -44 12 -136 13 -174 2z m44 -102 c31 -24 36
-81 9 -111 -16 -18 -68 -24 -89 -10 -38 25 -39 78 -1 120 25 27 47 28 81 1z"/>
<path d="M5465 4554 c386 -360 908 -436 1251 -181 71 53 155 130 134 123 -8
-2 -64 -21 -124 -41 -245 -81 -536 -88 -831 -18 -136 32 -279 81 -404 139
l-96 44 70 -66z"/>
<path d="M6555 5452 c-68 -33 -127 -93 -158 -161 -32 -69 -30 -178 5 -252 33
-72 95 -134 165 -166 142 -65 337 14 406 165 17 36 22 66 21 127 0 95 -22 151
-83 218 -60 65 -120 91 -216 95 -71 3 -86 0 -140 -26z m262 -10 c128 -66 198
-222 159 -354 -49 -171 -254 -271 -408 -201 -58 26 -128 97 -156 156 -75 159
7 351 175 413 56 21 177 13 230 -14z"/>
<path d="M6562 5414 c-55 -27 -102 -79 -129 -141 -24 -55 -23 -167 2 -218 25
-51 89 -115 138 -139 171 -80 388 57 386 244 0 30 -4 64 -8 75 -8 19 -9 18
-21 -7 -26 -55 -97 -80 -154 -53 -91 43 -82 187 15 221 l34 12 -37 16 c-60 26
-163 21 -226 -10z"/>
<path d="M6905 4780 c-3 -6 1 -7 9 -4 18 7 21 14 7 14 -6 0 -13 -4 -16 -10z"/>
<path d="M7263 4020 c65 -12 92 -53 120 -175 3 -11 3 3 0 30 -5 62 -34 130
-61 144 -12 6 -38 10 -59 10 l-38 -1 38 -8z"/>
<path d="M6183 2760 c-12 -5 -29 -21 -39 -35 -14 -22 -15 -32 -5 -65 6 -22 20
-44 31 -50 12 -6 162 -10 405 -10 l387 0 29 30 c41 41 38 85 -10 117 -34 23
-35 23 -405 22 -204 0 -381 -4 -393 -9z"/>
</g>
</svg>
