 <svg  version="1.0" xmlns="http://www.w3.org/2000/svg"  width="300.000000pt" height="68.000000pt" viewBox="0 0 300.000000 68.000000"  preserveAspectRatio="xMidYMid meet">  <g transform="translate(0.000000,68.000000) scale(0.100000,-0.100000)" fill="#ffffff" stroke="none"> <path d="M145 647 c-76 -35 -145 -143 -145 -227 0 -98 80 -204 174 -230 47 -13 136 -1 164 22 8 7 46 11 100 10 48 -1 114 3 147 8 33 6 87 10 120 10 69 -1 105 22 105 66 l0 26 42 -37 c23 -19 53 -38 66 -42 17 -4 21 -10 16 -22 -11 -27 -17 -108 -10 -146 9 -45 49 -74 77 -57 24 15 74 15 99 0 16 -10 24 -9 49 10 l30 22 33 -20 c18 -11 44 -20 57 -20 27 0 87 34 99 56 7 13 15 9 44 -20 20 -20 43 -36 52 -36 8 0 31 17 51 37 32 33 36 35 41 17 3 -10 17 -28 31 -38 24 -18 27 -18 54 -2 27 16 30 16 54 0 21 -14 30 -14 56 -4 23 10 33 10 42 1 16 -16 35 -14 67 9 l29 20 33 -20 c46 -28 90 -26 128 7 29 24 31 30 26 67 -3 23 -7 53 -9 68 -4 32 -31 65 -58 73 -17 6 -17 8 -4 21 8 9 15 28 15 44 0 31 14 47 25 30 4 -7 19 -8 36 -5 28 6 29 5 29 -28 0 -20 7 -40 17 -49 24 -20 77 -30 106 -19 13 5 30 5 39 0 9 -5 36 -10 59 -11 37 -1 46 3 69 30 32 38 56 41 64 7 4 -14 16 -31 29 -39 18 -11 158 -28 231 -27 30 0 58 32 51 58 -8 34 11 28 39 -13 27 -40 72 -74 97 -74 8 0 25 10 37 23 21 22 22 32 22 215 0 179 -1 193 -20 212 -27 27 -93 27 -120 0 -12 -12 -20 -33 -20 -52 l0 -32 -48 52 c-53 58 -83 66 -123 33 -21 -17 -24 -29 -25 -88 -1 -37 -2 -86 -3 -108 -1 -54 -13 -37 -51 78 -37 110 -60 137 -119 137 -51 0 -82 -36 -116 -132 -45 -128 -54 -130 -55 -15 0 90 -2 100 -25 122 -39 40 -77 33 -131 -21 l-46 -46 -47 46 c-51 50 -88 59 -129 30 -21 -14 -25 -14 -47 0 -18 12 -50 16 -130 16 -139 0 -145 -5 -145 -127 0 -49 -4 -94 -9 -101 -5 -9 -25 -12 -62 -10 l-54 3 -3 95 c-2 80 -6 98 -24 117 -26 28 -83 31 -110 6 -17 -15 -19 -15 -36 0 -15 14 -41 17 -133 17 -75 0 -119 -4 -127 -12 -9 -9 -18 -9 -37 0 -61 28 -113 9 -130 -46 -7 -23 -8 -22 -51 17 -45 42 -88 53 -112 29 -9 -9 -18 -9 -37 0 -33 15 -226 16 -258 1 -18 -8 -30 -8 -47 1 -35 18 -160 23 -195 7z m185 -85 l0 -52 -40 20 c-21 11 -50 20 -63 20 -30 0 -73 -33 -92 -70 -41 -80 14 -190 95 -190 17 0 20 6 20 50 0 47 -2 50 -25 50 -22 0 -25 4 -25 35 l0 35 65 0 65 0 0 -94 c0 -52 2 -101 5 -108 4 -10 -8 -18 -45 -26 -70 -16 -95 -15 -138 7 -146 75 -150 273 -7 363 24 15 46 18 108 16 l77 -3 0 -53z m1072 -68 l-4 -126 76 4 c73 3 76 2 76 -18 0 -13 2 -28 5 -36 4 -10 -20 -13 -120 -13 -100 0 -124 3 -120 13 3 8 5 76 5 152 l0 139 43 4 c23 2 42 4 42 5 0 1 -2 -55 -3 -124z m613 59 c22 -30 43 -57 47 -59 3 -2 28 23 54 56 42 53 51 60 83 60 l36 0 -3 -151 c-2 -102 1 -155 8 -164 10 -12 1 -14 -49 -12 -34 1 -61 5 -61 9 0 4 4 8 9 8 5 0 11 41 13 90 2 50 1 90 -2 90 -3 0 -23 -25 -44 -55 -22 -30 -40 -55 -42 -55 -1 0 -19 25 -40 56 l-39 57 -3 -83 c-2 -56 1 -87 10 -98 11 -13 10 -15 -12 -9 -14 4 -40 7 -58 7 -30 0 -32 2 -21 21 7 14 10 69 7 158 l-3 136 35 -3 c29 -3 41 -13 75 -59z m-1375 20 l0 -38 -85 3 -85 3 0 -39 0 -39 53 5 52 4 0 -40 0 -40 -52 5 -53 6 0 -38 0 -38 85 5 85 6 0 -33 0 -32 -82 -7 c-46 -4 -105 -10 -132 -13 -48 -6 -48 -6 -36 17 8 15 11 71 8 181 l-3 159 123 0 122 0 0 -37z m175 -49 c33 -47 64 -88 69 -91 4 -3 6 36 5 86 l-4 91 40 0 40 0 -3 -140 c-2 -87 1 -147 8 -160 10 -18 8 -20 -28 -20 -42 0 -36 -6 -167 175 -13 18 -14 12 -15 -66 0 -69 3 -89 17 -100 14 -12 9 -15 -43 -21 -61 -6 -78 -3 -56 11 10 6 12 46 10 164 l-3 157 35 0 c32 -1 39 -7 95 -86z m445 50 l0 -35 -45 7 -45 6 0 -114 c0 -75 4 -118 12 -126 9 -9 -1 -12 -45 -12 -54 0 -57 1 -47 19 5 11 10 68 10 126 l0 106 -42 -6 -43 -7 0 36 0 36 123 0 122 0 0 -36z m580 0 l0 -36 -80 4 -80 3 0 -29 c0 -28 0 -28 50 -24 l50 5 0 -39 0 -40 -50 7 -50 7 0 -31 0 -31 84 0 84 0 4 -35 4 -35 -132 3 c-123 2 -131 3 -122 20 5 10 8 78 6 152 l-3 135 118 0 117 0 0 -36z m699 -126 c29 -90 61 -172 70 -182 15 -18 15 -19 -18 -13 -18 4 -49 7 -67 7 -31 0 -33 2 -22 19 9 15 9 25 0 45 -10 23 -17 26 -66 26 -52 0 -55 -1 -61 -30 -4 -16 -4 -34 0 -40 4 -6 -15 -9 -49 -7 -57 2 -63 5 -47 22 7 8 58 141 116 303 3 7 22 12 47 12 l43 0 54 -162z m241 57 c36 -58 67 -105 70 -105 3 0 3 47 0 105 l-5 105 45 0 45 0 0 -198 0 -198 -27 4 c-22 3 -41 25 -100 117 -40 63 -75 114 -78 114 -10 2 2 -184 12 -196 8 -10 5 -13 -13 -12 -29 0 -109 16 -91 18 9 1 12 43 12 176 l0 175 33 0 c30 -1 36 -8 97 -105z m-1500 -93 c0 -119 8 -137 62 -144 36 -5 42 -12 23 -28 -14 -11 -21 -11 -47 4 -35 21 -90 16 -119 -10 -18 -16 -20 -16 -39 1 -18 16 -19 42 0 30 4 -3 17 3 29 13 18 15 21 30 23 117 3 95 4 100 28 112 14 7 28 13 33 13 4 0 7 -49 7 -108z m585 69 c-2 -9 -4 -31 -4 -48 -1 -33 -22 -45 -37 -21 -13 21 -5 83 13 95 19 15 33 2 28 -26z m-820 12 c14 -14 17 -31 12 -102 -4 -77 -2 -88 16 -109 l21 -22 -20 -21 c-20 -20 -21 -20 -53 -2 -24 14 -30 23 -26 38 3 11 5 68 5 128 -1 88 2 107 14 107 8 0 22 -8 31 -17z m-395 -52 c0 -62 -5 -73 -30 -62 -11 4 -15 23 -16 64 -1 54 0 57 22 57 23 0 24 -4 24 -59z m950 -175 c0 -15 -37 -32 -47 -22 -3 3 -3 12 0 21 8 19 47 20 47 1z m304 0 c25 -13 26 -15 11 -30 -22 -21 -27 -20 -54 8 -17 18 -19 25 -9 29 20 8 24 8 52 -7z m-427 -23 c-16 -16 -18 -16 -34 0 -16 16 -15 17 17 17 32 0 33 -1 17 -17z m213 8 c0 -19 -22 -23 -38 -7 -15 15 -14 16 11 16 15 0 27 -4 27 -9z m-669 -66 c12 -19 25 -35 30 -35 5 0 17 16 26 35 12 25 23 35 40 35 22 0 23 -3 23 -80 0 -79 0 -80 -25 -80 -24 0 -26 2 -20 38 6 35 6 36 -10 17 -9 -11 -21 -27 -26 -35 -8 -11 -11 -12 -15 -3 -3 7 -14 23 -25 35 l-19 23 6 -38 c6 -35 5 -37 -20 -37 -26 0 -26 0 -26 80 0 74 2 80 20 80 13 0 28 -13 41 -35z m288 25 c31 -16 46 -65 31 -100 -34 -83 -150 -59 -150 31 0 60 65 98 119 69z m131 -31 c8 -22 17 -42 21 -45 4 -2 14 15 21 38 12 34 20 44 41 46 l26 3 -33 -78 c-24 -57 -38 -79 -53 -81 -20 -3 -24 5 -80 146 -3 7 4 12 19 12 20 0 27 -8 38 -41z m200 -39 c0 -79 0 -80 -25 -80 -25 0 -25 1 -25 80 0 79 0 80 25 80 25 0 25 -1 25 -80z m129 38 l31 -42 0 42 c0 38 2 42 25 42 25 0 25 -1 25 -80 0 -79 0 -80 -25 -80 -17 0 -32 10 -47 35 -29 44 -41 44 -32 0 6 -33 5 -35 -20 -35 -26 0 -26 0 -26 80 0 72 2 80 19 80 11 0 33 -18 50 -42z m255 29 c15 -11 16 -15 4 -25 -8 -6 -27 -10 -44 -9 -26 2 -29 -1 -32 -30 -2 -25 1 -33 18 -38 25 -8 40 2 21 14 -19 12 -4 31 25 31 21 0 24 -4 24 -39 0 -43 -10 -51 -65 -51 -40 0 -75 38 -75 82 0 59 77 99 124 65z"/> <path d="M2427 465 c-10 -27 -17 -50 -17 -52 0 -2 14 -3 31 -3 29 0 30 1 23 33 -15 71 -20 74 -37 22z"/> <path d="M1240 165 c-26 -31 13 -82 44 -56 19 16 21 42 4 59 -16 16 -33 15 -48 -3z"/> </g> </svg> 