<?xml version="1.0" standalone="no"?>
<!DOCTYPE svg PUBLIC "-//W3C//DTD SVG 20010904//EN"
 "http://www.w3.org/TR/2001/REC-SVG-20010904/DTD/svg10.dtd">
<svg version="1.0" xmlns="http://www.w3.org/2000/svg"
 width="300.000000pt" height="300.000000pt" viewBox="0 0 300.000000 300.000000"
 preserveAspectRatio="xMidYMid meet">
<metadata>
Created by potrace 1.10, written by Peter Selinger 2001-2011
</metadata>
<g transform="translate(0.000000,300.000000) scale(0.100000,-0.100000)"
fill="#ecede7" stroke="none">
<path d="M1360 2500 c-392 -84 -690 -395 -775 -810 -25 -119 -17 -339 13 -378
27 -36 91 -35 146 2 22 14 46 26 55 26 9 0 27 7 39 16 21 15 25 15 41 0 17
-16 18 -13 25 60 3 42 6 117 6 166 0 68 4 93 16 105 10 10 18 12 22 6 4 -5 33
-20 65 -33 31 -13 57 -27 57 -31 0 -4 -26 3 -57 16 l-58 23 -3 -154 c-1 -89
-7 -154 -12 -154 -5 0 -11 67 -13 158 l-3 157 -1 -175 -2 -175 23 27 c13 15
26 46 30 72 7 45 8 46 44 46 36 0 81 9 132 25 l25 7 -22 -24 c-29 -31 -29 -39
7 -110 17 -32 30 -63 30 -69 0 -7 -24 -9 -72 -4 -154 13 -205 11 -226 -9 -12
-10 -22 -28 -24 -40 -3 -18 -11 -22 -55 -26 -28 -3 -54 -8 -56 -10 -40 -49
-49 -121 -22 -174 8 -15 15 -29 15 -31 0 -9 -122 -24 -137 -17 -61 32 -150 20
-204 -25 -40 -34 -79 -116 -79 -169 0 -57 41 -133 91 -168 55 -38 112 -44 172
-18 31 14 58 19 84 15 21 -2 74 1 118 7 44 6 101 11 128 10 38 -1 51 4 71 25
28 30 28 30 71 3 34 -23 35 -24 35 -95 0 -60 4 -77 20 -93 22 -22 33 -24 59
-10 12 6 31 6 54 -1 29 -8 42 -6 60 6 21 13 26 13 43 0 28 -21 80 -18 115 7
25 18 33 20 47 10 47 -34 61 -36 85 -14 29 27 35 27 63 1 21 -19 26 -20 54 -9
24 10 33 10 45 0 8 -7 25 -10 40 -6 14 4 35 1 46 -5 17 -9 25 -7 45 12 22 21
25 21 48 5 39 -25 92 -21 123 10 23 23 25 30 19 77 -5 36 -15 60 -33 79 -21
22 -24 31 -16 55 12 35 63 47 63 15 0 -11 8 -30 18 -41 16 -21 33 -24 102 -22
8 0 34 -2 57 -5 36 -5 47 -2 73 20 l31 25 28 -32 c25 -27 36 -32 82 -33 30 0
70 -4 90 -8 30 -6 41 -3 65 17 l29 25 39 -34 c46 -40 65 -42 94 -11 21 22 22
33 22 179 0 134 -2 159 -17 177 -33 39 -115 24 -127 -23 -5 -20 -7 -19 -39 12
-65 63 -127 27 -127 -75 0 -64 -12 -62 -35 7 -26 77 -48 100 -100 100 -49 0
-75 -23 -96 -88 -6 -20 -18 -46 -25 -57 -13 -18 -14 -16 -15 20 -1 68 -8 99
-23 111 -20 14 -9 26 13 14 24 -12 61 8 81 45 11 20 25 30 41 30 37 0 99 46
99 73 0 18 -5 22 -31 22 -19 0 -28 4 -23 11 3 6 17 9 29 7 20 -4 18 0 -14 32
-20 21 -49 45 -64 55 -21 13 -27 25 -25 44 4 37 33 38 74 1 30 -26 43 -31 77
-28 38 3 44 7 61 42 26 53 28 285 3 393 -93 408 -400 713 -792 788 -103 20
-270 18 -375 -5z m378 -36 c304 -63 568 -280 689 -568 68 -161 94 -332 74
-490 -6 -49 -13 -91 -15 -93 -2 -2 -22 1 -45 8 l-41 12 0 74 c0 72 -1 74 -30
91 -16 9 -30 23 -30 29 0 7 -11 15 -24 19 -21 5 -24 12 -30 87 -3 45 -6 116
-6 158 0 85 -3 89 -66 89 -30 0 -34 3 -34 26 0 15 -4 23 -11 19 -5 -4 -9 -14
-7 -23 2 -10 -3 -22 -11 -28 -10 -8 -15 -41 -19 -112 l-5 -102 -33 0 -34 0 0
93 c-1 50 -7 136 -14 191 -13 94 -22 115 -53 116 -8 0 -9 18 -6 59 4 38 2 61
-6 65 -8 5 -11 -12 -11 -58 0 -48 -4 -66 -13 -66 -10 0 -12 15 -9 59 3 36 0
61 -7 65 -8 5 -11 -12 -11 -56 0 -56 -3 -64 -22 -73 -28 -12 -34 -55 -44 -282
l-7 -152 -41 21 c-95 47 -136 96 -136 161 0 26 5 36 19 40 31 8 63 66 57 104
-4 26 -1 33 15 38 23 8 59 61 59 87 0 35 -24 68 -57 80 l-34 12 8 81 c12 134
12 138 -22 154 -42 20 -255 26 -320 9 l-50 -13 3 -123 c2 -100 0 -122 -11
-122 -8 0 -26 -9 -41 -21 -37 -29 -35 -65 8 -90 37 -22 48 -47 39 -90 -3 -16
4 -56 16 -93 12 -36 21 -72 21 -79 0 -8 7 -20 15 -27 14 -11 14 -15 -2 -33
-19 -22 -117 -87 -130 -87 -4 0 -6 47 -5 105 2 59 0 111 -6 118 -5 7 -9 44 -9
83 0 79 -22 129 -54 121 -10 -3 -27 2 -38 10 -19 13 -23 12 -46 -14 -13 -15
-25 -38 -25 -50 0 -13 -4 -23 -10 -23 -6 0 -10 -62 -10 -165 l0 -165 -44 22
c-43 20 -44 22 -50 82 -4 45 -11 65 -26 75 -11 7 -20 19 -20 26 0 6 -9 20 -19
29 -21 19 -23 17 -68 -38 -9 -10 -13 -58 -13 -156 0 -133 -1 -140 -20 -140
-13 0 -20 -7 -20 -20 0 -14 -7 -20 -23 -20 -38 0 -47 -19 -47 -101 l0 -77 -42
-10 c-28 -7 -46 -8 -53 -1 -5 5 -10 80 -10 177 0 183 10 241 68 382 89 219
259 401 472 507 172 86 396 116 583 77z m-259 -79 c-3 -2 -23 -9 -45 -14 -36
-8 -37 -9 -9 -10 l30 -2 -30 -14 -30 -13 30 -2 c22 -2 24 -4 10 -7 -33 -8 -42
-23 -14 -24 l24 0 -25 -11 -25 -11 25 -5 24 -4 -24 -14 c-25 -13 -25 -13 -2
-14 12 0 22 -4 22 -9 0 -5 -10 -12 -22 -14 -20 -4 -20 -4 4 -6 37 -2 46 -21
11 -22 -27 -1 -27 -1 7 -12 l35 -11 -35 -5 c-33 -5 -33 -5 14 -10 32 -4 51
-11 53 -21 4 -12 3 -12 -5 -2 -7 11 -11 8 -16 -10 -7 -22 -8 -22 -15 -4 -7 19
-8 19 -13 -2 -5 -16 -14 -22 -36 -22 l-30 0 -7 128 c-3 70 -7 133 -8 141 -1 8
9 18 23 22 29 8 86 11 79 4z m194 -16 l37 -10 -1 -57 c-2 -108 -6 -114 -79
-139 -84 -28 -102 -28 -128 0 -42 45 -51 185 -13 207 22 13 137 12 184 -1z
m115 -253 c16 -17 16 -18 -8 -10 -42 15 -94 8 -195 -26 -83 -28 -107 -32 -175
-28 -86 3 -112 16 -94 46 12 19 54 29 54 13 0 -5 -5 -13 -12 -17 -8 -5 -6 -10
8 -15 40 -16 103 -8 199 26 113 39 192 43 223 11z m-19 -45 c12 -8 12 -13 -3
-35 -9 -14 -24 -26 -34 -26 -10 0 -28 -7 -41 -16 -19 -14 -22 -22 -17 -50 8
-41 -2 -84 -19 -84 -15 0 -25 22 -25 57 0 15 -12 46 -26 70 l-25 44 38 16 c72
30 128 39 152 24z m-609 -40 c13 -25 13 -71 0 -71 -6 0 -11 -72 -12 -192 l-2
-193 -6 195 -6 195 -2 -190 c-2 -178 -3 -191 -22 -203 -20 -12 -20 -10 -20
183 0 107 4 203 9 213 5 9 15 32 21 50 14 37 25 40 40 13z m375 -10 c15 -6 11
-9 -23 -14 -23 -4 -42 -11 -42 -17 0 -11 40 -40 55 -40 5 0 3 5 -5 10 -12 8
-10 10 10 11 23 0 23 1 5 9 -19 8 -19 9 -1 9 47 2 70 -60 46 -123 -12 -32 3
-35 18 -3 10 20 11 19 11 -14 1 -37 -20 -64 -66 -88 -42 -21 -123 -10 -123 18
0 9 -9 40 -20 69 -23 59 -26 107 -8 118 6 4 14 2 16 -4 6 -18 22 -4 22 18 0
13 -9 22 -25 26 -14 3 -25 10 -25 15 0 11 127 11 155 0z m385 -46 l7 40 3 -40
3 -40 7 40 7 40 2 -38 c1 -25 5 -36 12 -31 8 5 9 -8 4 -45 -5 -34 -3 -51 4
-51 7 0 11 -44 11 -135 0 -83 -4 -135 -10 -135 -6 0 -11 52 -12 133 l-2 132
-6 -130 -6 -130 -4 130 -4 130 -7 -120 c-6 -115 -6 -113 -5 45 1 91 -1 145 -4
120 l-6 -45 -5 45 c-3 25 -3 -27 0 -116 3 -144 2 -161 -13 -161 -14 0 -16 15
-16 104 0 124 22 322 29 258 l5 -40 6 40z m89 -279 c0 -71 -1 -127 -3 -125 -2
2 -5 103 -8 224 -3 133 -2 183 2 125 4 -52 8 -153 9 -224z m24 49 c2 -99 2
-119 0 -45 -2 74 -8 139 -13 144 -6 6 -9 46 -9 91 3 147 19 10 22 -190z m-303
215 c12 -22 -11 -90 -30 -90 -7 0 -5 9 4 22 21 29 21 62 1 54 -9 -3 -15 0 -15
8 0 12 6 17 27 25 1 1 7 -8 13 -19z m-515 -82 c4 -18 9 -84 12 -145 5 -110 4
-113 -16 -113 -20 0 -21 5 -21 145 0 138 10 183 25 113z m-304 -41 c7 -27 -5
-39 -14 -14 -3 6 -6 2 -6 -9 -1 -12 6 -24 14 -28 9 -3 15 -18 15 -40 0 -52
-20 -55 -22 -4 -1 24 -5 -49 -8 -162 l-6 -205 -2 198 c-1 123 -6 197 -12 197
-6 0 -10 -48 -10 -125 0 -118 -1 -125 -20 -125 -18 0 -20 -7 -22 -82 -2 -77
-2 -78 -5 -20 -5 79 -23 81 -23 2 0 -36 -4 -60 -11 -60 -6 0 -9 21 -8 55 1 30
0 58 -4 62 -4 3 -7 -21 -7 -55 0 -37 -4 -62 -10 -62 -7 0 -10 24 -8 63 3 62 3
62 36 65 27 3 32 7 32 28 0 21 4 24 20 19 19 -6 20 -2 20 139 0 80 4 146 9
146 5 0 12 12 15 26 8 31 27 27 37 -9z m1337 -84 l-2 -78 -5 70 -5 70 -6 -75
-6 -75 -2 73 -2 72 -36 0 c-21 0 -33 4 -29 10 3 6 26 10 51 10 l44 0 -2 -77z
m-640 -23 c-27 -23 -38 -25 -38 -7 0 16 54 49 58 36 2 -5 -7 -18 -20 -29z
m-87 -88 c-5 -2 -21 4 -35 13 -13 9 -33 16 -43 15 -32 -4 -34 0 -16 30 l17 30
43 -42 c24 -24 39 -44 34 -46z m161 66 c20 -31 12 -49 -18 -42 -15 4 -34 0
-49 -10 -47 -31 -50 -16 -5 27 25 24 48 45 51 45 4 1 13 -8 21 -20z m-127 -29
c4 -5 5 -13 2 -16 -7 -6 -67 38 -67 49 0 10 56 -18 65 -33z m-137 -94 c5 -65
20 -77 63 -51 l29 17 -1 -148 -1 -148 -43 90 c-50 103 -75 191 -75 267 0 71
22 50 28 -27z m292 3 c-19 -99 -96 -263 -159 -338 l-20 -25 -1 159 c0 128 3
157 13 153 8 -3 20 -1 27 3 8 5 27 2 46 -8 41 -19 64 -5 64 40 0 31 28 94 37
84 3 -3 0 -34 -7 -68z m565 -50 c4 -68 5 -154 3 -193 l-4 -70 -4 90 -4 90 -6
-85 c-5 -73 -7 -59 -10 95 l-4 180 -6 -155 -6 -155 -2 154 -2 154 -82 -7 c-45
-4 -79 -4 -76 0 8 8 98 21 154 23 l42 1 7 -122z m-795 96 c20 -12 21 -14 5
-11 -17 3 -20 -2 -20 -30 -1 -37 -1 -37 28 -22 21 10 21 10 3 -5 -11 -9 -28
-16 -38 -16 -15 0 -18 8 -18 50 0 54 3 57 40 34z m180 -34 c0 -46 -2 -50 -24
-50 -14 0 -28 5 -32 11 -4 8 1 9 17 4 21 -7 22 -6 10 9 -11 13 -11 16 0 17 10
0 10 2 2 5 -7 3 -9 12 -6 20 4 10 0 12 -11 8 -9 -3 -16 -3 -16 0 0 6 37 24 53
25 4 1 7 -21 7 -49z m-354 -24 l-47 -55 16 -31 c15 -30 15 -32 -1 -28 -9 1
-26 16 -38 32 l-21 28 65 58 c35 32 66 57 69 55 2 -3 -17 -29 -43 -59z m273
29 c3 -17 1 -18 -13 -6 -10 9 -16 10 -16 2 0 -6 -7 -11 -15 -11 -15 0 -20 21
-8 34 14 13 48 1 52 -19z m626 15 c-11 -5 -47 -8 -80 -8 -60 1 -60 1 -15 8 25
4 61 7 80 8 28 0 31 -1 15 -8z m-402 -104 c-49 -55 -51 -75 -13 -107 l33 -28
-62 -109 c-33 -60 -61 -112 -61 -115 0 -19 22 -2 54 43 33 46 136 220 136 231
0 2 -25 2 -55 1 -35 -3 -55 0 -55 7 0 6 12 11 28 11 15 0 51 3 81 7 l55 6 -34
-59 c-44 -79 -104 -168 -153 -226 -59 -72 -11 -57 56 18 32 35 40 40 71 36 20
-2 36 -8 36 -13 0 -12 -42 -39 -61 -39 -10 0 -31 -12 -48 -26 -40 -33 -42 -79
-5 -123 l26 -31 -64 0 c-34 0 -72 -3 -84 -6 -35 -9 -54 -55 -54 -129 l0 -66
-42 3 -43 3 -5 76 c-3 43 -11 84 -18 92 -20 23 -59 29 -91 13 -21 -11 -31 -12
-39 -4 -6 6 -42 14 -79 18 -62 6 -66 7 -42 17 29 13 39 31 39 73 0 52 -19 42
-23 -12 l-3 -53 -2 61 c-1 45 -6 63 -17 68 -16 6 -21 46 -7 46 5 0 19 -12 33
-26 22 -24 69 -54 85 -54 4 0 -11 19 -33 43 -70 76 -194 279 -179 294 3 3 32
2 65 -2 67 -8 86 -30 21 -23 -22 2 -40 -1 -40 -6 0 -37 169 -303 178 -278 2 6
-22 58 -52 115 -31 57 -56 110 -56 117 0 15 29 50 41 50 4 0 15 -26 24 -57 38
-132 105 -213 177 -213 35 0 47 6 78 39 48 50 98 153 110 225 5 31 16 82 26
113 9 32 18 64 21 72 3 11 14 5 40 -21 l36 -37 -30 -35z m206 27 c115 -37 136
-56 38 -33 -71 17 -223 78 -238 96 -9 11 1 10 37 -5 27 -11 100 -37 163 -58z
m-975 61 c23 -9 20 -41 -5 -54 -39 -21 -57 5 -40 58 2 4 29 2 45 -4z m231 -14
c-12 -20 -86 -51 -181 -76 -53 -14 -98 -23 -101 -20 -3 3 0 8 8 10 8 3 63 21
122 40 60 20 116 40 125 46 22 12 35 13 27 0z m115 -77 c14 -85 54 -181 110
-266 l43 -66 38 53 c21 30 57 87 79 127 23 41 38 63 35 49 -11 -40 -74 -151
-112 -198 -30 -36 -37 -41 -50 -30 -9 7 -23 13 -32 13 -23 0 -78 90 -102 165
-19 62 -38 220 -27 220 3 0 11 -30 18 -67z m811 -43 c3 -58 11 -115 18 -128
24 -44 10 -52 -89 -52 -50 0 -100 -5 -111 -10 -15 -9 -19 -7 -19 7 0 10 -14
30 -31 44 -31 25 -31 26 -15 57 20 39 20 61 0 90 -18 27 -17 27 68 5 53 -14
71 -15 92 -5 33 15 33 35 0 61 -35 28 -22 43 34 39 l47 -3 6 -105z m129 40 c0
-13 7 -20 19 -20 11 0 23 -4 26 -10 3 -5 1 -10 -4 -10 -7 0 -11 -23 -11 -55 0
-76 -20 -69 -22 8 l-2 62 -3 -57 c-6 -87 -23 -70 -23 22 0 47 4 80 10 80 6 0
10 -9 10 -20z m-448 -10 c6 0 6 -6 -2 -15 -15 -18 -46 -20 -56 -4 -8 14 16 31
34 24 8 -3 18 -5 24 -5z m107 -206 c10 -9 -57 -25 -93 -22 l-41 3 30 17 c26
15 88 16 104 2z m-929 -79 l0 -55 -70 0 -70 0 0 55 0 55 70 0 70 0 0 -55z
m160 -11 l0 -44 -70 0 -70 0 0 45 0 44 63 3 c34 2 65 2 70 0 4 -2 7 -23 7 -48z
m1138 28 c21 -16 23 -25 20 -82 -3 -59 -5 -65 -25 -68 -13 -2 -23 1 -23 7 0 6
9 11 20 11 18 0 20 7 20 55 0 52 -1 55 -26 55 -14 0 -23 4 -19 10 3 6 4 10 1
10 -2 0 -11 3 -20 6 -14 5 -16 -4 -14 -67 l1 -74 7 65 7 65 1 -67 2 -68 -120
0 -120 0 0 49 c0 51 -17 81 -46 81 -15 0 -19 12 -7 23 3 4 76 7 162 7 134 0
159 -3 179 -18z m-330 -38 c20 -14 23 -24 21 -70 l-2 -54 -56 2 c-55 1 -55 1
-16 8 l40 8 -47 -3 c-25 -1 -53 2 -61 6 -9 6 -24 2 -40 -11 -14 -11 -33 -20
-44 -19 -10 0 -13 3 -6 6 8 3 11 14 7 28 -7 28 7 38 66 45 35 4 46 9 48 25 8
42 51 56 90 29z m-1128 -84 l0 -70 -65 0 -65 0 0 70 0 70 65 0 65 0 0 -70z
m160 -21 l0 -49 -70 0 -70 0 0 48 0 48 70 2 70 1 0 -50z m180 0 l0 -49 -80 0
-80 0 0 43 c0 24 2 46 4 48 2 2 38 5 80 6 l76 2 0 -50z m680 -34 c17 -20 5
-45 -20 -45 -11 0 -23 7 -26 15 -6 15 11 45 26 45 4 0 13 -7 20 -15z m258 6
c19 -11 11 -45 -11 -49 -19 -4 -32 20 -23 43 6 17 15 19 34 6z m86 3 c21 -8
21 -43 0 -51 -8 -3 -23 1 -31 10 -13 13 -14 19 -3 31 14 18 13 18 34 10z
m-152 -43 c16 -29 15 -30 -11 -60 -15 -17 -31 -31 -35 -31 -4 0 -26 16 -49 35
-22 19 -47 35 -55 35 -12 0 -12 3 -2 15 7 8 24 15 39 15 14 0 33 5 41 10 28
18 55 11 72 -19z m-1054 -51 l-22 -30 -23 21 c-29 28 -21 39 28 39 l40 0 -23
-30z m-455 -10 c14 0 17 -9 17 -45 l0 -44 -41 18 c-66 30 -114 3 -133 -71 -8
-36 18 -102 48 -118 39 -21 60 -10 61 33 2 33 -1 37 -22 37 -19 0 -23 5 -23
30 0 30 1 30 55 30 l55 0 0 -74 c0 -41 3 -81 6 -90 4 -11 -5 -18 -37 -26 -111
-30 -199 34 -206 147 -3 47 1 66 19 98 30 51 98 89 148 81 19 -3 43 -6 53 -6z
m269 -35 l-4 -30 -64 3 -64 4 0 -36 0 -36 40 6 40 7 0 -34 c0 -34 0 -34 -40
-31 -31 3 -40 1 -40 -11 0 -9 -3 -23 -7 -33 -6 -15 1 -16 70 -9 l77 7 0 -30 0
-29 -95 -7 c-52 -3 -102 -9 -111 -13 -14 -5 -16 -3 -11 11 4 10 7 79 7 154 l0
137 103 0 102 0 -3 -30z m149 -41 c50 -70 54 -73 57 -48 2 15 2 49 0 76 l-3
48 35 0 35 0 -3 -114 c-2 -72 1 -122 8 -135 10 -19 8 -21 -23 -21 -31 0 -39 7
-88 76 l-54 75 -3 -66 c-2 -41 2 -72 9 -81 9 -11 6 -14 -17 -14 -16 0 -40 -3
-54 -7 -22 -6 -23 -5 -12 9 10 12 12 51 10 147 l-3 131 26 0 c21 0 37 -15 80
-76z m369 46 c0 -28 -3 -30 -36 -30 l-36 0 4 -102 3 -103 -42 0 c-36 0 -40 2
-32 17 5 9 9 55 9 102 l0 86 -35 0 c-32 0 -35 2 -35 30 l0 30 100 0 100 0 0
-30z m122 -72 l-3 -103 63 3 63 3 1 -30 1 -31 -104 0 c-103 0 -104 0 -92 21 7
14 10 61 7 130 l-3 109 35 0 35 0 -3 -102z m360 72 c-4 -30 -5 -30 -68 -30
-57 0 -64 -2 -64 -20 0 -17 7 -20 40 -20 39 0 40 -1 40 -33 0 -32 -1 -32 -40
-29 -38 4 -40 3 -40 -23 l0 -27 70 4 c61 3 70 1 70 -13 0 -10 2 -23 5 -31 4
-10 -16 -12 -102 -10 l-108 3 0 130 0 129 101 0 101 0 -5 -30z m149 -24 l42
-54 41 54 c32 41 47 53 68 54 l27 0 3 -140 3 -140 -42 0 c-41 0 -42 1 -38 28
8 55 15 142 11 142 -3 0 -19 -20 -37 -45 -18 -25 -35 -45 -38 -45 -3 0 -21 21
-38 47 l-33 47 0 -70 c0 -41 5 -75 12 -82 9 -9 0 -12 -41 -12 -45 0 -52 2 -42
14 8 10 11 53 9 135 l-3 121 27 0 c21 0 37 -13 69 -54z m434 -84 c24 -73 49
-139 55 -147 11 -13 4 -15 -44 -15 -52 0 -55 1 -45 19 19 29 5 48 -43 54 -49
7 -60 0 -60 -38 0 -25 -3 -26 -30 -21 -17 3 -37 6 -44 6 -12 0 -12 3 -1 23 8
12 34 75 57 140 l43 118 34 -3 34 -3 44 -133z m195 53 c27 -43 54 -83 60 -89
12 -12 12 29 1 117 l-7 57 40 0 41 0 0 -168 0 -168 -24 4 c-17 3 -41 32 -85
99 l-61 94 -3 -72 c-2 -41 2 -77 8 -83 18 -18 11 -21 -36 -18 -35 3 -44 7 -40
19 3 8 6 77 6 153 l0 139 25 -3 c20 -2 37 -21 75 -81z m-1440 -94 c0 -58 4
-82 15 -91 19 -16 19 -39 0 -47 -23 -8 -58 26 -44 43 6 7 10 44 9 81 -3 87 -2
93 10 93 6 0 10 -33 10 -79z m192 2 c2 -43 8 -86 12 -95 6 -14 4 -18 -13 -18
-12 0 -35 -7 -50 -15 -38 -19 -47 -8 -16 21 23 21 25 31 25 104 0 72 2 80 19
80 17 0 20 -9 23 -77z m486 50 c-4 -34 -28 -43 -28 -10 0 25 7 37 22 37 5 0 8
-12 6 -27z m-693 -233 c9 -16 19 -30 24 -30 5 0 14 14 21 30 8 18 20 30 31 30
17 0 19 -8 19 -69 0 -60 -2 -69 -17 -66 -13 2 -17 10 -15 31 l2 29 -23 -28
-23 -28 -14 28 -14 28 -4 -33 c-2 -25 -8 -32 -20 -30 -14 3 -18 17 -20 71 -3
62 -1 67 17 67 13 0 27 -12 36 -30z m258 -2 c17 -23 18 -31 8 -57 -16 -37 -60
-57 -90 -42 -44 24 -53 74 -20 110 28 30 75 25 102 -11z m88 -3 c7 -19 16 -35
19 -35 3 0 12 16 19 35 8 24 19 35 32 35 10 0 19 -2 19 -4 0 -17 -61 -136 -70
-136 -9 0 -70 119 -70 136 0 2 9 4 19 4 13 0 24 -11 32 -35z m167 -32 c-2 -54
-6 -67 -20 -69 -16 -2 -18 7 -18 67 0 63 2 69 20 69 19 0 21 -5 18 -67z m106
35 l26 -33 0 33 c0 25 4 32 20 32 18 0 20 -7 20 -70 0 -45 -4 -70 -11 -70 -6
0 -27 17 -46 37 l-34 38 3 -35 c2 -26 -1 -35 -14 -38 -16 -3 -18 5 -18 67 0
82 13 91 54 39z m215 23 c21 -13 4 -31 -30 -31 -17 0 -32 -6 -35 -15 -8 -19
13 -45 34 -45 12 0 13 3 4 12 -19 19 -14 28 13 28 22 0 25 -4 25 -34 0 -28 -4
-34 -26 -39 -40 -7 -63 3 -79 34 -19 36 -19 41 6 73 21 27 60 34 88 17z"/>
<path d="M1114 1775 c0 -99 2 -138 3 -87 2 51 2 132 0 180 -1 48 -3 6 -3 -93z"/>
<path d="M1421 1874 c11 -10 24 -13 43 -8 34 8 16 24 -29 24 -26 0 -28 -1 -14
-16z"/>
<path d="M1420 1832 c0 -4 24 -9 53 -10 37 -1 48 1 37 8 -18 12 -90 13 -90 2z"/>
<path d="M1894 1735 c0 -60 1 -84 3 -52 2 32 2 81 0 110 -2 29 -3 3 -3 -58z"/>
<path d="M2133 1103 c26 -2 67 -2 90 0 23 2 2 3 -48 3 -49 0 -68 -1 -42 -3z"/>
<path d="M1957 1184 c-4 -4 -7 -16 -7 -26 0 -15 6 -19 28 -16 19 2 27 9 27 23
0 20 -33 33 -48 19z"/>
<path d="M2351 840 c-15 -46 -14 -50 14 -50 23 0 25 3 19 28 -12 51 -20 57
-33 22z"/>
<path d="M1373 593 c-18 -7 -16 -52 2 -59 18 -7 45 12 45 32 0 16 -30 33 -47
27z"/>
</g>
</svg>
