<?xml version="1.0" standalone="no"?>
<!DOCTYPE svg PUBLIC "-//W3C//DTD SVG 20010904//EN"
 "http://www.w3.org/TR/2001/REC-SVG-20010904/DTD/svg10.dtd">
<svg version="1.0" xmlns="http://www.w3.org/2000/svg"
 width="300.000000pt" height="300.000000pt" viewBox="0 0 300.000000 300.000000"
 preserveAspectRatio="xMidYMid meet">
<metadata>
Created by potrace 1.10, written by Peter Selinger 2001-2011
</metadata>
<g transform="translate(0.000000,300.000000) scale(0.100000,-0.100000)"
fill="#e8a322" stroke="none">
<path d="M1431 2369 c-24 -5 -55 -18 -68 -30 -22 -21 -23 -30 -23 -141 l0
-118 -35 -14 c-62 -26 -53 -103 16 -129 24 -9 29 -17 29 -45 0 -18 9 -50 20
-72 11 -22 20 -41 20 -44 0 -14 -93 -69 -140 -83 -112 -32 -153 -70 -169 -155
-7 -40 -8 -42 -19 -21 -41 74 -54 234 -27 336 33 127 125 249 231 304 50 26
71 53 41 53 -27 0 -134 -72 -179 -121 -100 -109 -143 -234 -135 -394 5 -121
27 -183 97 -284 65 -92 128 -138 289 -211 l131 -60 141 71 c158 78 225 133
291 233 158 243 75 593 -173 734 -61 35 -79 39 -79 19 0 -6 21 -23 47 -37 70
-37 156 -121 191 -188 64 -120 80 -271 42 -396 -22 -71 -40 -93 -40 -50 0 74
-60 137 -155 163 -50 14 -144 67 -151 86 -3 8 3 30 15 48 12 19 21 48 21 65 0
25 6 35 30 47 73 38 77 106 10 132 l-40 16 0 122 c0 142 -4 149 -90 165 -60
11 -77 11 -139 -1z m168 -40 c17 -6 31 -15 31 -20 0 -6 -8 -5 -19 1 -25 13
-181 13 -201 0 -11 -7 -7 -10 18 -11 17 -1 37 -3 42 -4 6 -1 36 -3 68 -4 31
-1 63 -5 70 -9 8 -6 15 -42 18 -103 9 -165 12 -179 40 -179 22 0 17 -19 -13
-45 -21 -18 -40 -24 -75 -25 -27 0 -48 4 -48 10 0 5 16 24 35 43 l34 33 -57
-9 c-34 -5 -81 -6 -113 0 l-54 8 -3 148 -3 148 33 14 c39 17 153 19 197 4z
m-264 -303 c-17 -12 -16 -14 21 -27 21 -7 73 -19 114 -26 l75 -12 -81 3 c-99
5 -185 36 -164 61 7 8 22 15 33 15 20 0 20 -1 2 -14z m370 4 c8 -13 -35 -13
-55 0 -11 7 -7 10 17 10 17 0 35 -4 38 -10z m-84 -155 c-8 -56 -80 -145 -117
-145 -37 0 -124 110 -124 157 0 16 11 18 123 18 l123 0 -5 -30z m-190 -141 c7
-9 24 -20 37 -25 13 -5 21 -13 17 -19 -4 -6 -15 -5 -30 2 -19 8 -31 8 -50 0
-23 -11 -25 -9 -25 11 0 22 16 47 31 47 4 0 13 -7 20 -16z m189 -3 c18 -35 12
-42 -29 -35 -24 4 -41 2 -45 -5 -9 -14 -26 -14 -26 -1 0 6 10 14 23 19 13 5
29 16 36 25 18 21 28 20 41 -3z m-297 -58 l-32 -25 19 -37 19 -37 -35 -13
c-39 -14 -41 -27 -19 -91 19 -53 19 -55 0 -40 -13 10 -45 98 -45 121 0 4 16
13 35 19 34 11 35 12 20 40 -21 40 -19 45 18 69 45 29 59 25 20 -6z m383 6
c38 -23 40 -29 19 -69 -15 -28 -14 -29 20 -40 32 -10 34 -14 28 -43 -7 -36
-42 -111 -49 -105 -2 3 3 24 11 48 22 64 20 77 -19 91 l-35 13 20 37 19 38
-33 25 c-39 31 -27 34 19 5z m-480 -32 c-64 -41 -86 -72 -111 -164 -11 -41 9
-24 38 31 30 56 63 94 73 83 4 -3 -1 -13 -10 -22 -28 -29 -12 -100 34 -152 30
-33 43 -123 17 -123 -25 0 -107 72 -146 128 -19 28 -22 40 -16 82 8 61 39 109
85 132 39 20 65 23 36 5z m194 -5 c0 -28 11 -34 34 -18 28 18 75 17 103 -1 21
-14 23 -13 34 11 14 29 46 37 34 9 -3 -10 -9 -30 -12 -46 -8 -38 -16 -40 -66
-16 l-45 22 -46 -27 -45 -26 -11 40 c-6 23 -14 48 -17 56 -3 9 2 14 16 14 14
0 21 -6 21 -18z m417 -8 c34 -22 52 -55 64 -119 8 -43 8 -60 0 -63 -6 -2 -11
-10 -11 -17 0 -20 -128 -135 -150 -135 -17 0 -20 7 -20 45 0 39 5 51 35 80 46
47 64 105 41 139 -9 14 -16 31 -16 37 0 22 51 -35 78 -86 29 -56 40 -43 22 23
-9 37 -41 73 -96 110 -17 11 -17 12 6 6 14 -3 35 -12 47 -20z m-457 -79 c0 -1
-11 -14 -25 -29 -22 -24 -55 -35 -55 -19 0 16 53 61 66 56 8 -3 14 -6 14 -8z
m302 -12 c29 -28 37 -53 16 -53 -37 1 -86 80 -49 80 3 0 18 -12 33 -27z m-145
5 c18 -7 33 -14 33 -18 -1 -3 -35 -24 -76 -47 l-75 -42 -41 19 -40 18 73 40
c87 46 83 45 126 30z m96 -48 c36 -14 49 -30 25 -30 -7 -1 -42 -18 -77 -39
l-64 -38 -38 16 c-22 9 -39 18 -39 21 1 7 143 89 150 87 3 -1 22 -9 43 -17z
m-133 -222 c0 -48 -3 -88 -6 -88 -4 0 -44 17 -90 38 l-83 37 -1 96 0 95 90
-45 90 -45 0 -88z m190 88 l0 -94 -79 -41 c-43 -22 -81 -41 -83 -41 -1 0 -2
39 -1 87 l2 87 78 47 c43 26 79 48 81 48 1 1 2 -41 2 -93z"/>
<path d="M1402 2163 l3 -127 45 -9 c42 -7 157 -1 147 9 -2 3 -37 10 -78 17
l-74 12 -3 94 c-2 56 1 98 8 105 18 18 11 26 -20 26 l-31 0 3 -127z"/>
<path d="M1420 1865 c0 -9 8 -30 17 -48 13 -24 18 -28 21 -15 3 16 -23 78 -33
78 -3 0 -5 -7 -5 -15z"/>
<path d="M1340 1352 l0 -68 55 -27 c30 -15 55 -25 55 -22 0 2 -20 18 -45 35
-38 26 -45 36 -45 65 0 40 14 47 58 29 54 -22 32 4 -26 31 l-52 24 0 -67z"/>
<path d="M1245 2110 c-4 -6 8 -10 29 -10 20 0 36 5 36 10 0 6 -13 10 -29 10
-17 0 -33 -4 -36 -10z"/>
<path d="M1695 2110 c3 -5 23 -10 43 -10 28 0 33 3 22 10 -20 13 -73 13 -65 0z"/>
<path d="M1205 2080 c-4 -6 6 -10 24 -10 16 0 33 5 36 10 4 6 -6 10 -24 10
-16 0 -33 -4 -36 -10z"/>
<path d="M1745 2080 c3 -5 20 -10 36 -10 18 0 28 4 24 10 -3 6 -20 10 -36 10
-18 0 -28 -4 -24 -10z"/>
<path d="M1765 2050 c3 -5 22 -10 41 -10 21 0 33 4 29 10 -3 6 -22 10 -41 10
-21 0 -33 -4 -29 -10z"/>
<path d="M1820 2000 l-45 -7 53 -1 c33 -1 51 2 47 8 -3 6 -7 9 -8 8 -1 0 -22
-4 -47 -8z"/>
<path d="M1115 1970 c-4 -6 18 -10 59 -10 37 0 66 4 66 10 0 6 -26 10 -59 10
-33 0 -63 -4 -66 -10z"/>
<path d="M1770 1970 c0 -6 29 -10 66 -10 41 0 63 4 59 10 -3 6 -33 10 -66 10
-33 0 -59 -4 -59 -10z"/>
<path d="M1120 1944 c59 -8 140 -8 140 -1 0 4 -37 6 -82 6 -46 -1 -72 -3 -58
-5z"/>
<path d="M1788 1943 c23 -2 61 -2 85 0 23 2 4 4 -43 4 -47 0 -66 -2 -42 -4z"/>
<path d="M1815 1920 l-100 -6 103 -2 c62 -1 102 2 102 8 0 6 -1 9 -2 8 -2 -1
-48 -5 -103 -8z"/>
<path d="M1138 1913 c28 -2 76 -2 105 0 28 2 5 3 -53 3 -58 0 -81 -1 -52 -3z"/>
<path d="M1080 1888 c0 -5 54 -8 120 -8 66 0 120 4 120 8 0 4 -54 8 -120 7
-66 0 -120 -3 -120 -7z"/>
<path d="M1690 1888 c0 -5 57 -8 127 -8 69 0 124 3 121 6 -9 8 -248 10 -248 2z"/>
<path d="M1070 1861 c0 -5 55 -8 125 -8 69 1 125 5 125 10 0 4 -56 7 -125 7
-69 0 -125 -4 -125 -9z"/>
<path d="M1690 1862 c0 -5 56 -8 125 -8 69 1 125 4 125 9 0 4 -56 7 -125 7
-69 0 -125 -4 -125 -8z"/>
<path d="M1122 1833 c37 -2 100 -2 140 0 40 1 10 3 -67 3 -77 0 -110 -1 -73
-3z"/>
<path d="M1742 1833 c37 -2 100 -2 140 0 40 1 10 3 -67 3 -77 0 -110 -1 -73
-3z"/>
<path d="M1123 1803 c43 -2 110 -2 150 0 40 1 5 3 -78 3 -82 0 -115 -2 -72 -3z"/>
<path d="M1733 1803 c42 -2 112 -2 155 0 42 1 7 3 -78 3 -85 0 -120 -2 -77 -3z"/>
<path d="M1050 1780 c0 -6 55 -10 144 -10 86 0 147 4 151 10 4 6 -47 10 -144
10 -94 0 -151 -4 -151 -10z"/>
<path d="M1660 1780 c0 -6 56 -9 150 -7 82 1 150 5 150 10 0 4 -67 7 -150 7
-92 0 -150 -4 -150 -10z"/>
<path d="M1112 1753 c37 -2 100 -2 140 0 40 1 10 3 -67 3 -77 0 -110 -1 -73
-3z"/>
<path d="M1763 1753 c37 -2 97 -2 135 0 37 2 6 3 -68 3 -74 0 -105 -1 -67 -3z"/>
<path d="M1155 1730 l-110 -6 107 -2 c63 -1 109 2 113 8 3 6 5 9 3 8 -2 -1
-52 -5 -113 -8z"/>
<path d="M1753 1728 c16 -10 207 -10 207 0 0 4 -49 7 -109 7 -60 0 -104 -3
-98 -7z"/>
<path d="M1050 1700 c0 -12 97 -12 125 0 14 6 -3 9 -52 9 -43 1 -73 -3 -73 -9z"/>
<path d="M1840 1700 c20 -13 120 -13 120 0 0 6 -29 10 -67 10 -48 0 -64 -3
-53 -10z"/>
<path d="M714 1092 c-55 -44 -59 -109 -10 -158 28 -28 41 -34 78 -34 57 0 64
7 70 60 l5 45 -41 2 c-35 1 -39 0 -23 -11 9 -7 17 -25 17 -40 0 -21 -5 -26
-25 -26 -31 0 -75 41 -75 70 0 24 18 61 34 72 21 14 65 8 75 -9 11 -21 16 -17
25 20 l6 27 -57 0 c-40 0 -65 -6 -79 -18z"/>
<path d="M903 1073 c14 -4 17 -16 17 -78 0 -60 -3 -76 -17 -84 -14 -8 0 -10
53 -11 66 0 72 2 77 22 8 29 2 34 -19 14 -25 -26 -58 -17 -62 17 -3 23 0 27
22 27 13 0 27 -6 29 -12 3 -8 6 -6 6 5 1 28 -3 32 -29 32 -20 0 -26 6 -28 28
-3 23 0 27 22 27 14 0 28 -4 31 -10 10 -17 25 -11 25 10 0 18 -6 20 -72 19
-40 -1 -65 -3 -55 -6z"/>
<path d="M1072 1069 c14 -8 17 -24 17 -77 -1 -37 -5 -73 -11 -79 -8 -10 -3
-13 23 -13 26 0 30 3 21 12 -7 7 -12 35 -12 62 l1 51 57 -63 c31 -34 60 -62
65 -62 4 0 7 35 7 78 0 47 5 83 12 90 9 9 3 12 -27 12 -32 -1 -37 -3 -22 -11
12 -7 17 -23 17 -54 0 -25 -3 -45 -7 -44 -5 0 -28 25 -53 54 -36 42 -51 53
-75 54 -25 0 -27 -1 -13 -10z"/>
<path d="M1290 1061 c0 -25 16 -36 24 -16 3 8 15 15 26 15 18 0 20 -6 20 -74
0 -50 -4 -76 -12 -79 -7 -3 7 -5 32 -5 25 0 39 2 33 5 -9 3 -13 29 -13 79 0
67 2 74 20 74 10 0 23 -7 28 -16 8 -14 10 -12 14 10 l5 26 -88 0 c-81 0 -89
-2 -89 -19z"/>
<path d="M1508 1073 c8 -3 12 -30 12 -83 0 -53 -4 -80 -12 -83 -7 -3 20 -6 60
-6 71 -1 72 -1 72 26 0 25 -1 25 -18 10 -10 -10 -28 -17 -40 -17 -18 0 -22 6
-22 30 0 25 4 30 24 30 13 0 27 -6 29 -12 3 -7 6 0 6 16 1 26 -1 28 -29 23
-28 -6 -30 -4 -30 23 0 25 4 30 25 30 13 0 29 -8 34 -17 9 -15 10 -14 11 10 0
27 0 27 -67 26 -38 0 -62 -3 -55 -6z"/>
<path d="M1708 1071 c11 -6 12 -24 7 -77 -4 -38 -12 -75 -17 -81 -8 -10 -1
-13 28 -13 25 0 34 3 26 9 -9 5 -12 25 -10 57 l3 49 33 -57 c19 -32 35 -58 38
-58 2 0 17 26 33 58 18 36 31 51 34 42 13 -38 15 -78 4 -89 -8 -8 8 -11 64
-11 l75 0 -1 28 c0 23 4 27 32 30 24 2 33 -1 38 -17 3 -12 3 -25 0 -31 -4 -6
21 -10 70 -10 69 0 75 1 61 16 -10 10 -16 33 -16 62 l1 47 57 -63 c31 -34 60
-62 65 -62 4 0 7 35 7 78 0 47 5 83 12 90 9 9 3 12 -28 12 -21 0 -34 -4 -28
-8 12 -8 28 -102 16 -102 -4 1 -27 26 -52 55 -35 44 -50 55 -74 55 -27 0 -28
-1 -12 -13 14 -10 16 -25 14 -82 -3 -61 -5 -70 -22 -70 -14 0 -28 20 -55 83
-19 45 -41 82 -49 82 -7 0 -26 -30 -42 -67 -39 -89 -44 -97 -63 -101 -16 -3
-31 35 -46 122 -10 62 -31 57 -65 -15 l-29 -62 -34 62 c-29 51 -39 61 -61 61
-19 0 -23 -3 -14 -9z m372 -88 c0 -7 -9 -13 -20 -13 -22 0 -23 3 -13 39 6 23
7 23 20 6 7 -11 13 -25 13 -32z"/>
<path d="M1130 765 c0 -52 3 -65 15 -65 13 0 15 8 10 38 l-6 37 22 -27 23 -28
18 28 18 27 0 -38 c0 -27 4 -37 13 -34 16 5 17 117 1 117 -7 0 -19 -11 -28
-25 -21 -31 -29 -31 -46 -1 -26 50 -40 40 -40 -29z"/>
<path d="M1333 819 c-46 -17 -52 -68 -13 -104 25 -22 64 -13 86 20 30 45 -21
104 -73 84z m43 -33 c15 -12 17 -18 8 -33 -14 -23 -43 -23 -57 -1 -8 12 -7 21
2 32 16 20 22 20 47 2z"/>
<path d="M1438 824 c-3 -3 8 -33 24 -67 l30 -62 29 55 c32 63 34 70 16 70 -7
0 -21 -15 -29 -32 l-16 -33 -16 38 c-15 35 -26 44 -38 31z"/>
<path d="M1657 824 c-4 -4 -7 -34 -7 -66 0 -45 3 -58 15 -58 11 0 15 11 15 38
l1 37 32 -38 c18 -20 35 -37 40 -37 4 0 7 30 7 66 0 48 -3 65 -12 61 -7 -2
-13 -18 -13 -35 0 -18 -2 -32 -5 -32 -3 0 -19 16 -35 36 -17 19 -33 32 -38 28z"/>
<path d="M1832 818 c-12 -6 -25 -21 -28 -34 -20 -78 74 -115 111 -44 l16 30
-36 0 c-36 0 -48 -15 -17 -23 16 -4 16 -4 0 -12 -27 -11 -48 1 -48 29 0 28 23
40 50 26 13 -7 21 -7 26 1 14 24 -39 43 -74 27z"/>
<path d="M1580 760 c0 -47 3 -60 15 -60 12 0 15 13 15 60 0 47 -3 60 -15 60
-12 0 -15 -13 -15 -60z"/>
<path d="M907 773 c-18 -18 0 -23 78 -23 69 0 85 3 85 15 0 12 -15 15 -78 15
-43 0 -82 -3 -85 -7z"/>
<path d="M1965 770 c-3 -5 0 -13 8 -16 23 -9 142 0 142 11 0 14 -142 19 -150
5z"/>
</g>
</svg>
