 <svg  version="1.0" xmlns="http://www.w3.org/2000/svg"  width="300.000000pt" height="300.000000pt" viewBox="0 0 300.000000 300.000000"  preserveAspectRatio="xMidYMid meet">  <g transform="translate(0.000000,300.000000) scale(0.100000,-0.100000)" fill="#e8a322" stroke="none"> <path d="M1417 2716 c-72 -20 -81 -33 -69 -97 6 -30 13 -78 17 -106 5 -48 4 -53 -14 -53 -32 0 -68 -20 -81 -46 -25 -45 32 -114 94 -114 12 0 14 -7 9 -30 -3 -19 3 -62 17 -111 23 -80 23 -80 3 -107 -10 -15 -45 -40 -76 -57 -36 -19 -55 -35 -52 -43 3 -8 5 -40 5 -73 0 -49 3 -59 18 -59 17 0 75 -39 58 -40 -5 0 -27 8 -48 17 l-38 17 0 63 c0 35 -4 63 -10 63 -5 0 -10 18 -10 39 0 22 -4 42 -9 45 -4 3 -6 17 -3 31 2 15 0 25 -7 25 -6 0 -11 14 -11 30 0 17 -4 30 -10 30 -5 0 -10 8 -11 18 0 15 -1 15 -8 -2 -10 -26 -41 -30 -41 -5 0 10 -5 19 -11 19 -6 0 -9 -6 -6 -14 3 -8 -1 -17 -10 -20 -10 -4 -13 -14 -9 -31 4 -14 2 -25 -4 -25 -5 0 -10 -11 -10 -24 0 -14 -4 -27 -9 -30 -5 -3 -7 -24 -4 -46 4 -26 2 -40 -6 -40 -7 0 -11 -35 -11 -110 l0 -110 -25 0 -25 0 0 104 c0 126 -10 227 -21 220 -5 -3 -9 15 -9 40 0 25 -4 46 -10 46 -5 0 -10 11 -10 25 0 14 -4 25 -10 25 -5 0 -10 14 -10 31 0 16 -4 28 -9 24 -5 -3 -8 -17 -5 -30 4 -22 1 -25 -27 -25 -28 0 -31 3 -27 25 3 14 1 28 -3 31 -5 3 -9 -8 -9 -24 0 -17 -6 -32 -14 -35 -9 -4 -12 -14 -9 -26 3 -12 1 -21 -6 -21 -6 0 -11 -19 -11 -46 0 -25 -4 -43 -9 -40 -11 7 -21 -94 -21 -222 l0 -104 -35 4 -35 4 0 -98 0 -98 -35 0 -35 0 0 65 0 65 -70 0 c-56 0 -70 3 -70 15 0 8 -4 15 -10 15 -6 0 -10 -59 -10 -156 l0 -156 -48 3 c-26 1 -72 2 -103 1 l-57 -2 -4 -35 -4 -35 103 0 c96 0 103 -1 103 -20 0 -19 -7 -20 -105 -20 -63 0 -105 -4 -105 -10 0 -6 42 -10 105 -10 98 0 105 -1 105 -20 0 -19 -7 -20 -102 -20 l-103 0 3 -50 4 -50 99 0 c97 0 99 0 99 -23 0 -23 -2 -24 -92 -23 -65 1 -92 -3 -95 -11 -4 -10 19 -13 91 -13 79 0 96 -3 96 -15 0 -12 -16 -15 -80 -15 -47 0 -80 -4 -80 -10 0 -6 33 -10 80 -10 64 0 80 -3 80 -15 0 -12 -14 -15 -65 -15 -37 0 -65 -4 -65 -10 0 -6 28 -10 65 -10 51 0 65 -3 65 -15 0 -11 -12 -15 -45 -15 -25 0 -45 -4 -45 -10 0 -5 20 -10 45 -10 33 0 45 -4 45 -15 0 -10 -10 -15 -30 -15 -16 0 -30 -4 -30 -10 0 -5 14 -10 30 -10 20 0 30 -5 30 -15 0 -13 119 -15 1010 -15 891 0 1010 2 1010 15 0 10 11 15 35 15 19 0 35 5 35 10 0 6 -16 10 -35 10 -24 0 -35 5 -35 15 0 11 12 15 45 15 25 0 45 5 45 10 0 6 -20 10 -45 10 -33 0 -45 4 -45 15 0 12 14 15 65 15 37 0 65 4 65 10 0 6 -28 10 -65 10 -51 0 -65 3 -65 15 0 12 16 15 85 15 50 0 85 4 85 10 0 6 -35 10 -85 10 -69 0 -85 3 -85 15 0 12 17 15 95 15 74 0 95 3 95 14 0 11 -18 13 -95 9 l-95 -5 0 26 0 26 105 0 105 0 0 50 0 50 -105 0 c-98 0 -105 1 -105 20 0 19 7 20 105 20 63 0 105 4 105 10 0 6 -42 10 -105 10 -98 0 -105 1 -105 20 0 19 7 20 105 20 l105 0 0 35 c0 21 -5 35 -12 36 -7 0 -61 1 -120 0 l-108 -1 0 140 0 140 -70 0 c-63 0 -70 2 -70 20 0 11 7 20 15 20 11 0 15 12 15 44 0 43 -1 45 -44 61 l-44 17 2 96 1 95 -72 39 -73 40 0 88 0 89 -75 56 c-65 48 -81 55 -120 55 l-45 0 0 -140 0 -140 -84 0 -85 0 -3 -37 -3 -37 -35 31 c-32 28 -35 35 -32 75 2 24 13 52 23 64 11 12 22 38 26 58 4 27 11 38 29 42 32 8 64 50 64 84 0 33 -26 58 -68 66 -31 6 -32 8 -32 58 0 29 7 78 15 109 8 32 15 60 15 63 0 3 -21 14 -47 26 -59 26 -189 33 -256 14z m243 -30 c22 -10 26 -14 10 -10 -14 3 -67 8 -119 11 l-94 6 7 -34 c4 -19 10 -69 13 -111 6 -77 6 -78 -18 -78 -58 0 -67 9 -74 69 -4 31 -11 73 -15 94 -7 31 -5 39 10 47 61 32 216 36 280 6z m-1 -45 c4 -6 4 -37 0 -68 -4 -32 -8 -66 -8 -76 -1 -16 -9 -18 -68 -15 l-68 3 -8 74 c-11 104 -11 104 74 99 39 -3 74 -10 78 -17z m-116 -191 l122 -1 -85 -34 c-58 -23 -102 -34 -137 -35 l-53 0 0 41 c0 33 3 40 16 35 9 -3 70 -6 137 -6z m-220 -36 l-27 -27 25 -20 c38 -31 148 -20 268 28 67 26 103 35 124 31 38 -8 57 -23 57 -47 0 -18 -1 -18 -21 2 -27 27 -57 23 -179 -26 -133 -53 -237 -49 -277 12 -14 20 -13 24 11 48 14 14 30 25 35 25 6 0 -2 -12 -16 -26z m397 -63 c0 -19 -28 -30 -64 -24 -38 6 -38 6 -15 19 27 15 79 18 79 5z m225 -1 l-30 -8 28 -1 27 -1 0 -120 0 -120 -30 0 -30 0 0 130 0 130 33 -1 32 -1 -30 -8z m126 -57 l39 -28 -2 -85 -2 -85 -3 82 -4 82 -41 30 c-52 38 -41 41 13 4z m-403 -32 c4 -37 -12 -61 -39 -61 -12 0 -19 -7 -19 -19 0 -55 -113 -122 -148 -87 -12 12 -13 18 -3 30 9 11 9 15 -1 19 -7 3 -1 6 14 6 40 1 45 21 6 22 -31 0 -32 1 -10 11 12 6 22 18 21 27 0 10 -2 12 -6 4 -7 -20 -43 -16 -43 5 1 57 21 74 60 50 15 -10 22 -9 38 5 30 27 59 22 66 -13 3 -18 12 -30 21 -30 12 0 13 3 3 19 -9 15 -9 23 2 36 19 23 35 13 38 -24z m389 -11 c7 -8 13 -41 13 -72 0 -55 -1 -58 -25 -58 -36 0 -47 29 -39 105 7 68 13 71 51 25z m-431 -155 c-3 -8 -19 -21 -35 -30 l-30 -15 32 52 c27 44 32 48 35 29 2 -12 1 -29 -2 -36z m-670 -15 l2 -45 -8 45 c-4 30 -8 36 -8 18 -3 -40 -22 -45 -23 -6 -2 30 -2 31 -6 6 -2 -16 -8 -28 -13 -28 -5 0 -11 12 -13 28 -4 25 -4 24 -6 -6 0 -21 -5 -31 -12 -26 -6 3 -9 17 -6 30 2 13 0 24 -4 24 -5 0 -10 -19 -11 -42 -1 -39 -2 -40 -5 -10 -7 56 0 63 59 60 l53 -3 1 -45z m1230 -39 l69 -37 1 -85 1 -84 -6 79 -6 78 -75 39 c-41 22 -78 39 -82 39 -4 0 -8 -47 -8 -105 l0 -105 -170 0 -170 0 0 110 0 110 35 0 c34 0 35 -1 35 -40 0 -39 1 -40 35 -40 l35 0 -6 40 -6 39 103 3 c132 4 132 4 215 -41z m-552 -18 c-9 -66 -38 -152 -87 -256 l-41 -88 -23 43 c-42 80 -73 194 -73 269 0 38 4 69 8 69 4 0 25 -16 46 -35 42 -38 61 -43 69 -20 4 8 22 21 40 29 19 8 38 19 41 25 17 27 27 9 20 -36z m-496 30 c-10 -2 -18 -12 -18 -22 0 -16 11 -18 68 -12 21 2 13 29 -10 34 -20 4 -19 4 5 6 23 1 27 -3 27 -24 0 -14 5 -25 10 -25 6 0 10 -18 10 -39 0 -22 5 -43 10 -46 6 -3 10 -30 10 -58 0 -50 -2 -53 -35 -71 -44 -24 -58 -15 -16 10 27 16 31 24 31 61 0 24 -4 43 -10 43 -5 0 -10 20 -10 45 l0 45 -56 0 -57 0 6 -40 c3 -28 1 -42 -9 -48 -9 -5 -14 -35 -17 -102 l-3 -95 -2 103 c-1 63 2 102 8 102 6 0 10 20 10 44 0 25 5 48 10 51 6 3 10 15 10 26 0 13 6 19 23 18 16 -1 18 -2 5 -6z m-258 -168 c0 -103 -4 -165 -10 -165 -6 0 -10 59 -10 158 0 139 3 172 17 172 2 0 3 -74 3 -165z m30 0 c0 -103 -4 -165 -10 -165 -6 0 -10 62 -10 165 0 103 4 165 10 165 6 0 10 -62 10 -165z m30 -6 c0 -99 -4 -159 -10 -159 -6 0 -10 62 -10 166 0 107 3 163 10 159 6 -4 10 -70 10 -166z m-93 -81 c-1 -46 -3 -11 -3 77 0 88 2 125 3 83 2 -42 2 -114 0 -160z m116 73 c1 -83 -1 -151 -5 -151 -5 0 -8 71 -8 157 0 86 3 154 6 150 3 -3 7 -73 7 -156z m1218 122 c31 -18 34 -25 44 -105 7 -57 -5 -62 -52 -20 -27 23 -32 35 -36 85 -2 31 1 57 6 57 5 0 22 -8 38 -17z m-61 -74 c0 -33 -4 -59 -10 -59 -6 0 -10 29 -10 66 0 41 4 63 10 59 6 -3 10 -33 10 -66z m-434 53 c12 -7 17 -31 15 -64 -1 -14 -46 -48 -64 -48 -3 0 2 27 10 60 16 61 19 65 39 52z m-508 -14 c5 -7 13 -34 17 -60 7 -46 6 -49 -34 -88 l-41 -40 -6 25 c-6 25 -1 69 17 138 10 38 28 47 47 25z m202 -33 c0 -57 53 -200 88 -237 l26 -28 -22 -23 c-25 -26 -28 -47 -10 -65 9 -9 8 -18 -2 -37 -24 -46 23 -93 59 -61 24 22 26 38 9 66 -10 15 -10 22 0 32 18 18 15 42 -7 63 -20 17 -20 18 9 41 16 14 40 47 54 75 l25 51 20 -41 c18 -34 21 -59 21 -164 0 -166 1 -168 135 -174 77 -4 105 -9 124 -24 18 -14 40 -19 87 -19 35 0 64 -3 64 -6 0 -3 -13 -18 -28 -32 -18 -17 -36 -53 -51 -99 -12 -40 -26 -75 -32 -78 -5 -4 -9 29 -9 79 0 76 -2 86 -22 100 -30 22 -42 20 -76 -9 l-30 -25 -27 22 c-23 18 -44 22 -129 25 -92 4 -105 2 -129 -17 -25 -20 -27 -26 -27 -101 l0 -80 -32 3 -33 3 -5 75 c-6 94 -17 113 -61 112 -19 -1 -45 -1 -59 0 -24 1 -201 0 -265 -2 -16 -1 -80 1 -142 4 -61 4 -122 2 -135 -3 -24 -9 -24 -8 -14 24 l10 34 91 5 c49 2 95 5 100 5 6 1 100 -1 210 -4 165 -5 203 -4 219 8 17 13 20 31 24 156 2 78 1 154 -3 168 -3 14 -28 47 -56 74 -44 43 -49 51 -46 84 4 37 29 64 60 65 14 0 17 -9 17 -45z m-560 -90 c0 -70 -4 -115 -10 -115 -6 0 -10 45 -10 115 0 70 4 115 10 115 6 0 10 -45 10 -115z m180 0 c0 -70 -4 -115 -10 -115 -6 0 -10 45 -10 115 0 70 4 115 10 115 6 0 10 -45 10 -115z m1160 -32 l0 -38 -255 0 -255 0 0 38 0 37 255 0 255 0 0 -37z m40 -9 c0 -19 -4 -34 -10 -34 -5 0 -10 18 -10 41 0 24 4 38 10 34 6 -3 10 -22 10 -41z m87 4 c48 -21 53 -26 51 -53 -1 -27 -1 -28 -5 -5 -3 20 -17 32 -61 52 -70 32 -57 37 15 6z m-14 -38 l34 -20 -4 -120 c-4 -93 -2 -125 10 -149 12 -24 13 -32 2 -41 -9 -7 -16 -6 -25 5 -7 8 -26 15 -42 15 l-29 0 2 140 c2 77 0 142 -4 146 -6 6 9 44 18 44 2 0 19 -9 38 -20z m-1102 -305 c8 -7 10 38 7 153 l-3 162 87 0 86 0 2 -170 c0 -110 -3 -170 -10 -170 -6 0 -10 57 -10 160 0 108 -4 160 -11 160 -7 0 -9 -47 -4 -154 4 -103 2 -156 -5 -161 -7 -4 -10 45 -10 154 0 89 -3 161 -7 161 -5 0 -7 -72 -5 -160 2 -109 0 -160 -7 -160 -7 0 -11 53 -11 160 0 111 -3 160 -11 160 -8 0 -10 -44 -6 -155 3 -92 2 -157 -4 -160 -5 -4 -9 57 -9 154 0 111 -3 161 -11 161 -8 0 -10 -46 -8 -154 2 -85 1 -158 -3 -162 -5 -4 -8 65 -8 154 0 113 -3 162 -11 162 -8 0 -10 -46 -8 -156 4 -156 4 -157 -18 -160 l-23 -4 2 173 2 172 3 -155 c2 -92 8 -159 14 -165z m209 145 c0 -107 -4 -170 -10 -170 -6 0 -10 63 -10 170 0 107 4 170 10 170 6 0 10 -63 10 -170z m482 108 l-3 -38 46 0 45 0 0 38 0 37 105 0 105 0 0 -142 0 -143 -34 0 c-30 0 -35 3 -38 28 -2 19 -9 28 -25 30 -15 2 -23 10 -23 22 0 10 -5 20 -12 22 -18 6 -82 -18 -86 -32 -3 -7 -13 -21 -24 -32 -10 -10 -16 -23 -13 -28 4 -6 -37 -10 -107 -10 l-113 0 3 143 3 142 87 0 87 0 -3 -37z m338 -114 c0 -83 -4 -134 -10 -134 -6 0 -10 54 -10 141 0 91 4 138 10 134 6 -4 10 -62 10 -141z m-1095 106 c21 -5 4 -8 -57 -9 -53 -1 -88 3 -88 9 0 11 100 11 145 0z m-175 -40 c0 -22 -5 -40 -10 -40 -6 0 -10 6 -9 13 3 26 -1 47 -11 47 -5 0 -9 -3 -7 -7 1 -5 -2 -8 -8 -8 -5 0 -9 3 -7 8 1 4 -2 7 -8 7 -5 0 -10 -7 -10 -15 0 -21 -20 -19 -21 3 -1 16 -2 16 -6 0 -5 -22 -23 -24 -23 -3 0 21 -20 19 -20 -2 -1 -16 -2 -16 -15 1 -13 17 -15 18 -15 3 0 -9 -4 -17 -10 -17 -5 0 -10 11 -10 25 0 25 0 25 95 25 l95 0 0 -40z m159 16 c-9 -8 -120 -12 -125 -4 -3 4 25 8 62 8 37 0 65 -2 63 -4z m27 -35 c-7 -10 -141 -9 -152 2 -4 4 30 7 75 7 45 0 80 -4 77 -9z m-477 -63 l-3 -63 42 -3 c37 -3 42 -6 42 -27 0 -23 -2 -24 -44 -19 -25 4 -58 2 -75 -4 l-31 -11 0 85 c0 46 -3 84 -7 84 -5 0 -7 -39 -5 -86 2 -53 -1 -91 -7 -97 -8 -8 -11 17 -11 86 0 53 -3 97 -7 97 -5 0 -6 -45 -5 -99 2 -59 -1 -107 -7 -118 -8 -13 -10 15 -11 110 l0 127 66 0 65 0 -2 -62z m191 54 c0 -5 -13 -9 -30 -10 -16 0 -30 4 -30 9 0 5 14 9 30 9 17 0 30 -4 30 -8z m1620 -82 l0 -90 -57 0 -58 0 0 90 0 90 58 0 57 0 0 -90z m-1355 60 c-28 -12 -135 -12 -135 0 0 6 32 10 78 9 52 0 71 -3 57 -9z m419 -5 c3 -9 -1 -18 -10 -22 -19 -7 -39 11 -30 26 10 16 33 13 40 -4z m-399 -25 c-3 -5 -37 -10 -75 -10 -38 0 -72 5 -75 10 -4 6 23 10 75 10 52 0 79 -4 75 -10z m-285 -10 c0 -5 -13 -10 -30 -10 -16 0 -30 5 -30 10 0 6 14 10 30 10 17 0 30 -4 30 -10z m70 1 c0 -5 -13 -9 -30 -9 -16 1 -30 5 -30 10 0 4 14 8 30 8 17 0 30 -4 30 -9z m215 -21 c4 -6 -23 -10 -74 -10 -47 0 -81 4 -81 10 0 6 31 10 74 10 41 0 78 -4 81 -10z m-285 -10 c0 -5 -13 -10 -30 -10 -16 0 -30 5 -30 10 0 6 14 10 30 10 17 0 30 -4 30 -10z m1194 -50 c4 -28 9 -57 12 -65 4 -9 0 -15 -9 -15 -16 0 -27 40 -27 96 0 52 17 40 24 -16z m-926 30 c12 0 22 -4 22 -9 0 -5 -36 -9 -80 -10 -71 -1 -91 4 -75 21 3 3 29 4 58 2 28 -2 62 -3 75 -4z m411 -4 c9 -10 9 -16 1 -21 -17 -11 -40 3 -34 20 8 19 18 19 33 1z m471 -14 c0 -15 4 -42 9 -60 7 -24 7 -32 -4 -32 -7 0 -16 7 -19 16 -10 26 -7 104 4 104 6 0 10 -12 10 -28z m-1150 6 c0 -4 -13 -8 -30 -8 -16 0 -30 4 -30 9 0 5 14 9 30 9 17 -1 30 -5 30 -10z m1243 -35 c3 -16 9 -36 13 -47 5 -14 3 -17 -12 -14 -28 5 -42 88 -15 88 5 0 11 -12 14 -27z m-1315 0 c-2 -14 4 -17 35 -16 24 1 37 -3 37 -11 0 -9 -14 -13 -42 -12 -39 1 -43 4 -46 29 -2 15 2 27 8 27 6 0 10 -8 8 -17z m72 5 c0 -4 -13 -8 -30 -8 -16 0 -30 4 -30 9 0 5 14 9 30 9 17 -1 30 -5 30 -10z m280 2 c17 -5 -4 -8 -63 -9 -57 -1 -86 3 -82 9 7 12 109 12 145 0z m836 -25 c7 -38 2 -51 -15 -40 -14 8 -15 75 -1 75 5 0 12 -16 16 -35z m-1013 -10 c1 -6 -19 -10 -45 -11 -32 0 -48 3 -48 12 0 15 89 14 93 -1z m192 5 c4 -6 -25 -10 -79 -10 -51 0 -86 4 -86 10 0 6 33 10 79 10 44 0 83 -4 86 -10z m1065 -131 c0 -110 -12 -138 -26 -61 -8 46 -49 102 -75 102 -10 0 -19 3 -19 8 1 15 74 62 97 62 23 0 23 -1 23 -111z m119 -9 l36 -105 3 94 c2 60 -1 98 -9 107 -10 12 -3 14 37 14 37 0 45 -3 36 -12 -15 -15 -17 -384 -2 -393 23 -14 7 -22 -28 -13 -37 9 -39 12 -68 94 -16 46 -31 84 -34 84 -3 0 -3 -36 0 -80 l5 -80 -30 2 -30 2 3 184 c2 136 0 187 -9 198 -11 13 -8 15 21 12 33 -3 34 -4 69 -108z m-1611 94 c28 -6 29 -7 18 -38 -14 -41 -14 -40 -28 -29 -28 21 -49 22 -68 3 -17 -17 -20 -34 -20 -126 0 -117 9 -144 45 -144 23 0 25 4 25 46 0 37 -3 45 -15 40 -12 -4 -15 3 -15 29 0 40 1 40 60 50 37 6 43 5 33 -6 -9 -8 -13 -44 -13 -100 0 -79 -2 -89 -22 -103 -26 -18 -80 -21 -110 -5 -34 18 -48 70 -48 176 0 54 5 115 10 135 18 65 67 88 148 72z m1782 -54 c12 -8 13 -13 3 -30 -7 -11 -13 -40 -13 -64 0 -65 30 -86 121 -86 38 0 69 -4 69 -9 0 -5 -24 -9 -52 -9 -91 0 -97 -2 -117 -23 -18 -19 -20 -33 -17 -128 1 -58 -1 -116 -5 -128 l-8 -23 -306 1 -306 0 18 32 c10 18 19 34 20 36 2 2 11 -3 22 -13 16 -15 44 -17 234 -16 167 1 219 5 234 15 16 12 -14 14 -219 15 -207 0 -238 2 -238 15 0 14 24 15 193 10 105 -3 212 -8 237 -10 33 -4 41 -2 33 6 -9 9 -4 16 20 28 36 18 35 8 36 254 1 141 4 151 41 127z m-1746 -42 c-9 -30 -22 -38 -62 -38 -27 0 -33 4 -30 18 2 12 13 17 35 17 18 1 38 6 45 13 17 17 20 15 12 -10z m176 4 c0 -4 3 -16 6 -27 5 -18 1 -20 -45 -17 l-51 4 0 -31 c0 -34 1 -35 48 -22 31 9 32 9 32 -22 0 -32 -1 -32 -40 -29 l-40 4 0 -41 c0 -39 1 -41 31 -41 17 0 39 5 51 11 19 10 20 9 13 -23 -4 -18 -8 -34 -9 -34 0 -1 -32 -4 -71 -7 l-70 -7 0 148 0 147 73 -3 c39 -2 72 -7 72 -10z m122 -59 c16 -36 31 -63 33 -61 3 2 1 33 -3 69 l-8 64 31 0 30 0 0 -132 0 -133 -31 0 c-29 0 -34 5 -58 61 -15 34 -28 60 -30 58 -2 -2 0 -32 3 -66 l7 -63 -33 0 c-29 0 -32 2 -25 23 13 37 15 224 3 231 -21 13 -11 22 20 18 28 -4 35 -13 61 -69z m360 -32 l-4 -104 52 5 c50 5 51 5 48 -21 -3 -25 -5 -26 -78 -29 l-75 -3 0 128 0 128 30 0 30 0 -3 -104z m520 87 c-15 -15 -16 -201 -2 -229 10 -17 7 -19 -22 -19 l-34 0 3 73 3 72 -24 -50 -23 -50 -27 50 -26 50 2 -68 c3 -66 2 -67 -22 -67 l-25 0 0 125 c0 124 0 125 23 125 18 0 28 -11 45 -50 12 -27 25 -50 29 -50 4 0 17 22 30 50 17 37 28 50 48 52 32 4 37 1 22 -14z m198 7 c0 -2 16 -65 35 -142 19 -76 35 -138 35 -138 0 -1 -16 1 -36 3 -25 3 -34 8 -30 18 11 28 -5 44 -45 44 -35 0 -39 -2 -39 -26 0 -23 -3 -25 -24 -20 -13 3 -35 2 -47 -3 l-23 -8 21 -12 c27 -14 48 -14 89 1 28 10 36 9 51 -4 27 -23 51 -28 77 -18 18 7 28 5 40 -9 9 -10 13 -21 9 -25 -4 -3 -69 -3 -145 0 -131 7 -141 6 -167 -14 -34 -25 -41 -20 -41 25 0 28 5 35 35 47 19 8 35 20 35 26 0 6 4 9 9 5 5 -3 13 0 18 7 10 17 72 219 73 238 0 12 8 15 35 12 19 -2 35 -6 35 -7z m-808 -24 c4 -28 3 -29 -28 -24 l-31 5 4 -73 c2 -41 5 -86 7 -101 2 -23 -2 -27 -28 -30 l-31 -3 3 104 4 104 -34 -6 c-33 -5 -34 -4 -30 24 l4 29 78 0 78 0 4 -29z m376 1 c0 -26 -1 -27 -44 -24 -42 4 -44 3 -44 -23 0 -26 2 -27 38 -23 35 5 37 4 37 -22 0 -26 -2 -27 -37 -22 -37 5 -38 4 -38 -28 0 -32 0 -32 45 -28 44 3 46 2 43 -22 -3 -24 -7 -25 -73 -28 l-70 -3 0 126 0 125 71 0 c71 0 71 0 72 -28z m-362 -227 c14 -22 14 -24 -6 -35 -27 -14 -57 5 -40 26 6 7 13 43 14 81 4 89 9 94 13 14 2 -35 11 -74 19 -86z m-816 95 c0 -32 -9 -37 -27 -19 -7 7 -38 11 -72 10 -33 0 -63 3 -66 9 -4 6 20 10 64 10 38 0 73 5 76 10 12 20 25 9 25 -20z m661 -122 c-31 -11 -45 -86 -27 -155 l8 -33 -312 0 c-237 0 -312 3 -315 13 -9 24 -12 145 -5 157 6 9 18 5 46 -16 58 -42 58 -42 44 -59 -11 -13 -7 -14 31 -10 24 2 137 7 252 10 180 4 207 3 207 -10 0 -13 -34 -15 -247 -15 -198 0 -245 -3 -235 -12 17 -17 451 -24 481 -8 12 6 21 21 21 34 0 40 -37 47 -234 42 -175 -5 -178 -4 -160 15 17 19 45 25 58 12 13 -13 56 -14 94 -2 31 9 119 26 157 30 6 1 24 -2 41 -6 25 -5 37 -2 60 18 22 19 32 23 42 14 11 -9 10 -12 -7 -19z m667 15 c2 -8 -6 -13 -22 -13 -19 0 -24 4 -19 15 6 18 34 16 41 -2z m-308 -4 c0 -6 -9 -22 -20 -36 -11 -14 -25 -44 -31 -67 l-11 -41 -17 55 -17 55 39 3 c27 2 37 7 34 17 -6 14 1 25 15 25 4 0 8 -5 8 -11z m-331 -56 l13 -28 22 28 c12 15 26 27 31 27 6 0 10 -31 10 -70 0 -60 -3 -70 -17 -70 -14 0 -18 8 -18 33 0 25 -3 29 -11 17 -8 -11 -12 -12 -16 -2 -10 24 -22 11 -16 -18 4 -25 2 -30 -13 -30 -17 0 -19 8 -19 70 0 75 13 90 34 43z m195 6 c17 -14 26 -30 26 -50 0 -32 -30 -69 -57 -69 -51 0 -75 94 -31 124 29 20 30 20 62 -5z m181 -49 c0 -63 -2 -70 -20 -70 -18 0 -20 7 -20 70 0 63 2 70 20 70 18 0 20 -7 20 -70z m90 40 c9 -16 18 -30 22 -30 3 0 3 14 0 30 -6 27 -4 30 19 30 22 0 24 -2 13 -21 -6 -12 -9 -44 -7 -70 5 -43 3 -49 -14 -49 -11 0 -17 4 -14 9 3 5 -3 20 -15 32 l-20 24 5 -32 c5 -28 2 -33 -14 -33 -17 0 -18 5 -13 48 3 29 1 58 -6 70 -10 19 -9 22 8 22 13 0 27 -12 36 -30z m176 19 c24 -13 16 -29 -16 -29 -27 0 -39 -24 -25 -51 15 -28 33 -24 26 6 -5 21 -3 25 14 25 18 0 21 -5 18 -37 -3 -33 -7 -38 -29 -41 -19 -2 -33 4 -48 24 -27 35 -27 59 4 89 27 28 29 29 56 14z m499 -24 c11 -13 8 -15 -19 -15 -30 0 -39 9 -24 23 11 11 30 8 43 -8z m-823 -91 c7 -15 10 -31 7 -35 -6 -10 -97 -12 -107 -3 -11 12 18 44 40 44 12 0 25 5 28 10 10 16 19 12 32 -16z m251 -31 c2 -8 -6 -13 -22 -13 -25 0 -33 10 -19 24 10 10 36 3 41 -11z"/> <path d="M1412 2673 c-19 -4 -23 -9 -18 -26 3 -12 8 -53 12 -90 9 -89 24 -66 17 25 -4 47 -2 72 7 83 7 8 11 14 9 14 -2 -1 -15 -4 -27 -6z"/> <path d="M1427 2003 c-4 -3 -7 -21 -7 -40 0 -38 18 -50 50 -33 19 10 21 9 17 -7 -27 -92 -28 -101 -6 -137 11 -20 22 -36 24 -36 2 0 13 16 25 35 20 32 21 41 11 80 -15 60 -15 83 1 67 7 -7 20 -12 30 -12 21 0 37 65 20 82 -17 17 -60 -6 -64 -34 -4 -28 -31 -31 -36 -3 -6 32 -47 57 -65 38z m42 -27 c10 -12 8 -17 -8 -26 -19 -9 -21 -8 -21 15 0 28 12 32 29 11z"/> <path d="M2066 1208 c-15 -45 -15 -48 4 -48 21 0 24 12 10 45 -7 18 -8 18 -14 3z"/> <path d="M1337 974 c-12 -13 -7 -52 7 -57 18 -7 39 17 34 40 -3 18 -29 29 -41 17z"/> <path d="M1240 2674 c-25 -8 -74 -24 -110 -35 -73 -24 -262 -118 -303 -152 -14 -12 -45 -35 -67 -52 -46 -33 -158 -147 -211 -215 -153 -195 -245 -443 -254 -685 l-4 -120 13 125 c16 142 33 223 72 330 89 250 265 472 492 623 107 71 299 153 405 172 39 8 61 25 30 25 -10 -1 -38 -8 -63 -16z"/> <path d="M1755 2663 c6 -5 44 -20 85 -32 467 -145 837 -633 842 -1113 1 -53 5 -95 10 -92 16 10 8 160 -17 304 -10 57 -43 149 -90 255 -83 184 -223 353 -407 492 -61 46 -175 113 -193 113 -3 1 -41 16 -85 35 -79 34 -165 56 -145 38z"/> <path d="M1285 2588 c-270 -81 -408 -160 -571 -324 -138 -139 -235 -305 -289 -490 -46 -160 -58 -374 -19 -374 11 0 14 19 14 98 1 381 252 776 610 957 66 33 181 76 258 95 24 6 42 17 42 25 0 20 -11 23 -45 13z"/> <path d="M1723 2573 c-8 -20 -4 -22 89 -54 115 -40 199 -84 293 -153 281 -207 449 -512 463 -843 3 -90 8 -123 17 -123 21 0 28 87 16 192 -29 259 -142 490 -336 683 -135 135 -266 217 -454 283 -68 24 -84 27 -88 15z"/> <path d="M675 2070 c8 -13 66 -43 71 -37 5 5 -58 47 -70 47 -4 0 -4 -5 -1 -10z"/> <path d="M630 2023 c0 -5 20 -19 45 -31 25 -12 45 -18 45 -14 0 7 -30 25 -82 50 -5 2 -8 0 -8 -5z"/> <path d="M2320 2000 c-14 -11 -21 -20 -17 -20 11 0 67 29 67 35 0 11 -27 3 -50 -15z"/> <path d="M590 1961 c0 -4 23 -18 50 -29 28 -12 50 -17 50 -13 0 5 -6 11 -12 14 -7 3 -30 12 -50 21 -21 9 -38 12 -38 7z"/> <path d="M2358 1948 c-16 -5 -28 -14 -28 -19 0 -12 6 -11 40 6 47 24 39 32 -12 13z"/> <path d="M556 1891 c8 -8 113 -41 130 -41 22 0 -17 20 -68 34 -64 18 -76 20 -62 7z"/> <path d="M2378 1882 c-27 -9 -48 -19 -48 -23 0 -8 87 15 98 25 12 13 -5 12 -50 -2z"/> <path d="M532 1824 c10 -10 118 -32 118 -24 0 5 -23 13 -50 19 -57 12 -76 14 -68 5z"/> <path d="M2413 1823 c-13 -2 -23 -9 -23 -14 0 -11 50 -1 65 12 9 9 -2 10 -42 2z"/> <path d="M505 1759 c-3 -3 16 -9 42 -13 60 -8 88 -8 79 1 -9 10 -116 21 -121 12z"/> <path d="M2445 1762 c-16 -2 -34 -8 -40 -13 -7 -7 6 -8 35 -3 25 4 46 8 48 9 8 7 -16 10 -43 7z"/> <path d="M550 763 c0 -33 179 -208 293 -285 192 -131 426 -200 669 -197 295 3 525 90 752 283 60 52 190 196 182 203 -2 3 -57 -50 -123 -115 -248 -252 -491 -355 -833 -354 -334 1 -614 127 -852 382 -49 52 -88 89 -88 83z"/> <path d="M685 750 c-4 -6 43 -10 135 -10 92 0 139 4 135 10 -4 6 -60 10 -135 10 -75 0 -131 -4 -135 -10z"/> <path d="M1985 750 c-4 -7 53 -10 165 -10 112 0 169 3 165 10 -4 6 -70 10 -165 10 -95 0 -161 -4 -165 -10z"/> <path d="M1060 645 c0 -66 2 -75 18 -75 15 0 17 7 15 38 -4 32 -2 35 8 17 18 -30 18 -30 35 -9 14 18 15 17 11 -13 -3 -28 0 -33 17 -33 19 0 21 6 21 75 0 84 -12 96 -44 44 l-19 -31 -16 31 c-9 17 -23 31 -31 31 -12 0 -15 -16 -15 -75z"/> <path d="M1254 695 c-22 -22 -25 -32 -20 -63 6 -38 30 -65 55 -60 8 2 23 15 34 30 16 22 18 33 11 59 -5 17 -19 38 -31 46 -20 14 -24 13 -49 -12z m46 -50 c0 -37 -22 -49 -34 -19 -9 23 2 54 20 54 9 0 14 -11 14 -35z"/> <path d="M1396 653 c28 -75 40 -92 52 -77 13 14 54 135 48 141 -13 13 -35 -9 -42 -42 -9 -50 -18 -50 -32 1 -9 33 -17 44 -32 44 -18 0 -18 -2 6 -67z"/> <path d="M1555 645 c0 -65 2 -75 18 -75 15 0 17 10 17 75 0 65 -2 75 -17 75 -16 0 -18 -10 -18 -75z"/> <path d="M1655 645 c0 -65 2 -75 18 -75 13 0 17 9 17 38 l1 37 20 -37 c32 -63 49 -50 49 36 0 67 -2 74 -18 69 -14 -3 -18 -12 -15 -36 3 -29 2 -30 -9 -13 -18 27 -47 56 -55 56 -5 0 -8 -34 -8 -75z"/> <path d="M1826 688 c-27 -38 -16 -87 25 -108 28 -15 64 9 67 44 1 22 -2 26 -23 26 -27 0 -32 -9 -13 -28 9 -9 7 -12 -10 -12 -19 0 -22 6 -22 36 0 31 3 36 20 31 20 -5 45 15 33 26 -15 16 -62 6 -77 -15z"/> <path d="M774 651 c6 -9 173 -7 183 3 4 3 -37 6 -91 6 -54 0 -95 -4 -92 -9z"/> <path d="M1985 651 c7 -12 223 -12 231 0 3 5 -49 9 -116 9 -74 0 -119 -4 -115 -9z"/> <path d="M880 560 c0 -5 18 -10 40 -10 22 0 40 5 40 10 0 6 -18 10 -40 10 -22 0 -40 -4 -40 -10z"/> <path d="M2010 560 c0 -5 20 -10 44 -10 25 0 48 5 51 10 4 6 -13 10 -44 10 -28 0 -51 -4 -51 -10z"/> <path d="M1096 499 c-10 -50 -8 -65 6 -51 16 16 28 15 28 -3 0 -33 18 -12 23 27 7 50 2 59 -18 32 -14 -18 -14 -18 -15 4 0 33 -17 27 -24 -9z"/> <path d="M1817 507 c-7 -18 3 -31 28 -42 18 -7 18 -9 3 -12 -10 -3 -18 -9 -18 -14 0 -14 37 -11 42 4 7 18 -2 37 -17 37 -8 0 -17 4 -20 10 -4 6 1 7 11 3 12 -4 15 -2 12 8 -6 19 -34 23 -41 6z"/> <path d="M1186 488 c-9 -35 -7 -68 4 -68 6 0 10 13 10 29 0 16 3 36 6 45 3 9 2 16 -4 16 -5 0 -12 -10 -16 -22z"/> <path d="M1237 504 c-4 -4 -7 -28 -6 -53 1 -36 3 -41 8 -21 l7 25 7 -25 c6 -21 9 -22 17 -10 5 8 9 31 9 50 0 28 -2 31 -9 15 -8 -19 -8 -19 -17 3 -5 13 -12 20 -16 16z"/> <path d="M1774 463 c6 -47 12 -61 21 -51 9 9 -7 98 -18 98 -6 0 -7 -18 -3 -47z"/> <path d="M1310 450 c0 -49 14 -68 23 -32 4 16 5 16 6 0 0 -10 6 -18 11 -18 6 0 10 24 9 53 -1 39 -3 46 -8 27 l-7 -25 -8 23 c-13 38 -26 24 -26 -28z"/> <path d="M1632 488 c-24 -24 -11 -88 18 -88 26 0 29 9 21 54 -7 42 -20 53 -39 34z m28 -44 c0 -13 -4 -24 -10 -24 -5 0 -10 14 -10 31 0 17 4 28 10 24 6 -3 10 -17 10 -31z"/> <path d="M1705 453 c8 -56 7 -55 29 -47 19 7 22 25 4 22 -8 -2 -14 11 -16 35 -2 20 -8 37 -14 37 -7 0 -8 -16 -3 -47z"/> <path d="M1390 440 c0 -43 3 -50 20 -50 11 0 20 5 20 10 0 6 -4 10 -10 10 -5 0 -10 7 -10 15 0 8 5 15 12 15 9 0 9 3 0 12 -9 9 -7 14 6 24 15 12 14 13 -10 14 -27 0 -28 -2 -28 -50z"/> <path d="M1472 443 c-11 -51 -7 -67 9 -43 8 11 12 12 16 3 10 -27 24 -12 18 20 -17 83 -29 89 -43 20z"/> <path d="M1548 440 c2 -27 8 -50 13 -50 5 0 9 8 9 17 0 9 7 24 15 33 20 22 9 50 -19 50 -19 0 -21 -4 -18 -50z"/> </g> </svg> 