<?xml version="1.0" standalone="no"?>
<!DOCTYPE svg PUBLIC "-//W3C//DTD SVG 20010904//EN"
 "http://www.w3.org/TR/2001/REC-SVG-20010904/DTD/svg10.dtd">
<svg version="1.0" xmlns="http://www.w3.org/2000/svg"
 width="300.000000pt" height="300.000000pt" viewBox="0 0 300.000000 300.000000"
 preserveAspectRatio="xMidYMid meet">
<metadata>
Created by potrace 1.10, written by Peter Selinger 2001-2011
</metadata>
<g transform="translate(0.000000,300.000000) scale(0.100000,-0.100000)"
fill="#ecede7" stroke="none">
<path d="M1442 2479 c-35 -4 -79 -13 -98 -19 l-34 -12 0 -128 0 -129 43 -13
c56 -17 327 -17 385 0 l42 13 0 129 0 128 -33 11 c-35 12 -186 32 -222 30 -11
-1 -48 -5 -83 -10z m202 -40 c39 -6 76 -15 83 -21 20 -16 18 -181 -2 -198 -34
-28 -327 -27 -362 1 -18 16 -18 182 0 198 30 24 173 34 281 20z"/>
<path d="M1816 2147 c-115 -56 -363 -62 -512 -12 -79 26 -83 26 -108 9 -32
-20 -28 -25 47 -53 77 -28 212 -51 302 -51 122 0 322 44 358 79 5 5 -4 17 -20
28 -28 19 -29 19 -67 0z"/>
<path d="M1302 1952 c4 -75 24 -112 60 -112 16 0 18 -9 18 -74 l0 -75 76 -46
c41 -25 79 -47 83 -48 5 -1 45 20 90 47 l81 49 0 72 c0 68 2 73 23 79 31 7 45
38 50 114 5 55 3 62 -11 58 -109 -35 -346 -34 -456 0 -17 6 -18 1 -14 -64z
m438 -21 c0 -13 -16 -41 -35 -62 -31 -35 -35 -45 -35 -94 0 -53 -1 -56 -42
-86 -74 -54 -77 -54 -141 -17 -60 34 -76 62 -75 131 0 18 -10 40 -30 60 -30
32 -47 70 -38 85 2 4 93 8 200 7 l196 0 0 -24z"/>
<path d="M1268 1543 l-58 -46 41 -35 41 -35 -37 -31 -36 -31 45 -103 c26 -56
78 -180 118 -275 39 -94 77 -179 84 -187 10 -12 14 -151 5 -202 -2 -12 -589
-10 -596 2 -4 6 5 88 20 183 14 95 37 249 51 342 31 208 39 229 100 255 60 26
74 25 74 -4 0 -14 34 -91 75 -173 139 -275 204 -386 236 -404 12 -6 -35 96
-132 287 l-152 297 24 18 c13 10 27 19 32 19 16 0 6 17 -20 32 -27 15 -32 14
-128 -27 -55 -24 -103 -49 -107 -57 -4 -7 -14 -62 -23 -123 -55 -370 -96 -644
-101 -668 l-6 -27 351 0 351 0 0 200 0 200 -23 0 c-23 0 -26 11 -82 257 -31
141 -62 285 -68 320 -6 35 -14 63 -17 63 -3 -1 -31 -22 -62 -47z m70 -170 c17
-68 52 -227 58 -263 11 -58 -17 -18 -65 95 -23 55 -47 110 -53 121 -8 18 -6
28 13 53 12 17 26 31 30 31 5 0 12 -17 17 -37z"/>
<path d="M1741 1528 c-14 -72 -100 -464 -107 -490 -5 -15 1 -18 38 -18 l44 0
77 173 77 172 -35 30 -36 31 40 29 c22 17 41 33 41 36 0 6 -116 99 -124 99 -2
0 -9 -28 -15 -62z m66 -34 c2 -6 -6 -21 -17 -34 l-20 -23 0 30 c0 16 3 33 7
37 9 8 26 3 30 -10z m-13 -108 l26 -35 -54 -121 c-52 -117 -76 -159 -76 -132
0 13 58 291 65 310 6 18 10 16 39 -22z"/>
<path d="M1420 1490 c0 -44 2 -80 5 -80 4 0 20 8 38 17 47 25 113 26 158 3 21
-11 41 -20 44 -20 3 0 5 36 5 80 0 44 -2 80 -5 80 -3 0 -23 -9 -43 -19 -54
-27 -100 -28 -149 -3 -23 12 -45 22 -48 22 -3 0 -5 -36 -5 -80z"/>
<path d="M1904 1448 l-25 -21 28 -18 c15 -10 28 -22 28 -26 -1 -6 -129 -270
-173 -355 -2 -5 78 -8 177 -8 l181 0 0 -35 c0 -19 -3 -35 -7 -35 -5 0 -8 -90
-8 -200 l0 -200 92 0 c70 0 91 3 88 13 -4 11 -49 295 -106 667 l-22 145 -114
47 -113 46 -26 -20z m149 -73 c61 -27 72 -40 80 -100 27 -187 50 -336 76 -490
10 -60 18 -128 17 -150 -1 -37 -3 -40 -33 -43 -23 -2 -34 2 -42 15 -11 21 -8
295 4 360 6 37 4 45 -18 67 -25 25 -29 26 -161 26 -79 0 -137 4 -141 10 -3 5
2 23 11 39 14 24 21 28 36 20 10 -6 39 -9 65 -7 61 4 87 37 88 109 0 66 -20
82 -65 55 -17 -10 -33 -16 -36 -13 -2 2 5 25 16 51 11 26 20 54 20 62 0 20 20
18 83 -11z m-38 -114 c-3 -10 -11 -38 -18 -62 l-13 -44 -52 -3 c-29 -1 -52 -1
-52 2 0 8 125 126 133 126 5 0 6 -8 2 -19z"/>
<path d="M1514 1315 c-9 -23 3 -45 24 -45 29 0 48 26 32 45 -7 8 -21 15 -32
15 -10 0 -21 -7 -24 -15z"/>
<path d="M1514 1115 c-9 -23 3 -45 24 -45 25 0 44 23 36 44 -8 20 -53 21 -60
1z"/>
<path d="M1700 915 l0 -95 45 0 45 0 0 95 0 95 -45 0 -45 0 0 -95z"/>
<path d="M1580 720 l0 -170 35 0 35 0 0 170 0 170 -35 0 -35 0 0 -170z"/>
<path d="M1850 720 l0 -170 35 0 35 0 0 170 0 170 -35 0 -35 0 0 -170z"/>
<path d="M1980 720 l0 -170 35 0 35 0 0 170 0 170 -35 0 -35 0 0 -170z"/>
</g>
</svg>
