<?xml version="1.0" standalone="no"?>
<!DOCTYPE svg PUBLIC "-//W3C//DTD SVG 20010904//EN"
 "http://www.w3.org/TR/2001/REC-SVG-20010904/DTD/svg10.dtd">
<svg version="1.0" xmlns="http://www.w3.org/2000/svg"
 width="300.000000pt" height="300.000000pt" viewBox="0 0 300.000000 300.000000"
 preserveAspectRatio="xMidYMid meet">
<metadata>
Created by potrace 1.10, written by Peter Selinger 2001-2011
</metadata>
<g transform="translate(0.000000,300.000000) scale(0.100000,-0.100000)"
fill="#ecede7" stroke="none">
<path d="M1166 2570 c-49 -16 -92 -32 -97 -37 -12 -12 41 -175 55 -169 89 39
138 56 169 56 64 0 40 -17 -55 -39 -93 -21 -127 -35 -117 -46 3 -3 22 1 41 9
19 8 59 17 89 20 59 6 62 7 -76 -31 -116 -32 -142 -58 -65 -65 31 -3 35 -6 33
-31 -2 -34 -34 -75 -96 -122 -27 -20 -52 -48 -58 -62 -13 -36 -11 -98 7 -183
17 -85 13 -127 -21 -185 -47 -81 -137 -142 -219 -147 -41 -3 -42 -5 -19 -38
33 -51 79 -93 124 -114 l45 -21 -35 -121 c-29 -96 -45 -133 -83 -185 -49 -68
-168 -295 -168 -321 0 -8 -14 -32 -30 -53 -38 -48 -38 -70 0 -90 16 -8 34 -24
40 -35 10 -19 8 -20 -50 -20 -50 0 -60 -3 -60 -17 0 -17 51 -18 940 -18 889 0
940 1 940 18 0 16 -16 17 -205 17 l-206 0 22 29 c22 29 51 40 349 124 41 12
76 22 78 23 1 0 0 8 -3 16 -5 13 -34 7 -183 -37 -97 -28 -187 -55 -199 -59
-20 -6 -23 -4 -23 21 0 73 -70 128 -154 120 -41 -4 -55 -10 -83 -41 -27 -29
-33 -44 -33 -81 0 -48 20 -99 42 -108 7 -3 -64 -6 -158 -6 -141 -1 -174 2
-184 14 -7 8 -18 15 -25 15 -21 0 -115 64 -115 79 0 9 -6 11 -17 5 -10 -4 -35
-9 -55 -12 -30 -3 -38 -1 -38 12 0 11 9 16 33 16 17 0 49 3 70 6 l37 7 0 56
c1 76 17 241 31 310 l12 56 -82 162 -81 163 0 85 c0 47 1 85 3 85 1 0 24 -9
52 -19 l50 -19 20 51 21 52 -88 43 c-85 41 -99 54 -78 67 6 3 10 2 10 -3 0 -5
40 -28 90 -51 49 -24 88 -47 85 -51 -2 -4 13 -10 36 -13 22 -3 46 -11 54 -17
13 -10 10 -17 -16 -41 -31 -29 -39 -29 -71 -1 -22 18 -44 6 -26 -15 23 -28 56
-34 98 -17 46 18 63 15 84 -18 8 -13 67 -187 131 -388 65 -201 120 -368 124
-372 3 -4 12 -4 19 1 9 5 -18 102 -108 382 -66 206 -125 385 -132 398 -7 13
-24 29 -38 35 -14 6 -37 23 -52 38 -15 16 -37 28 -52 28 -17 0 -24 4 -20 14 3
9 -20 30 -69 61 l-74 47 13 56 c17 73 17 130 0 178 -7 22 -10 48 -6 59 9 25 4
35 -19 35 -10 0 -29 9 -42 21 -13 11 -30 24 -38 29 -13 7 -13 14 -1 49 11 35
17 40 34 35 20 -6 20 -6 4 13 -28 31 -19 60 9 32 7 -7 18 -3 38 17 20 20 29
24 35 14 4 -7 13 -10 18 -6 6 4 16 -3 23 -15 9 -17 8 -23 -2 -30 -8 -5 -10 -9
-5 -9 5 0 4 -6 -3 -13 -8 -10 -7 -17 1 -25 9 -9 9 -15 0 -24 -9 -9 -21 -9 -48
0 -30 9 -35 8 -30 -5 3 -8 6 -29 6 -46 l0 -32 20 33 c11 18 26 32 33 31 37 -5
45 2 45 36 0 20 5 41 11 49 8 9 7 18 -4 32 -25 33 -19 62 15 69 17 4 30 11 30
16 0 9 -10 11 -54 13 -18 1 -36 51 -62 169 -8 35 -24 34 -138 -3z m138 -64
c16 -63 14 -76 -11 -76 -13 0 -14 2 -2 17 12 15 12 16 -3 10 -10 -3 -18 -2
-18 3 0 6 5 10 10 10 6 0 10 5 10 11 0 6 -7 8 -17 4 -15 -5 -16 -4 -5 6 17 18
15 29 -5 23 -15 -5 -15 -3 1 10 19 16 19 16 -4 16 -23 0 -23 0 -4 15 19 14 19
14 -1 15 -20 1 -20 1 0 9 24 10 28 4 49 -73z m-57 -37 c5 -25 2 -29 -23 -35
-16 -3 -39 -13 -52 -21 -33 -20 -46 -12 -61 36 -18 60 -9 76 52 93 l52 14 13
-29 c7 -16 15 -42 19 -58z m93 -93 c0 -3 -4 -8 -10 -11 -5 -3 -10 -1 -10 4 0
6 5 11 10 11 6 0 10 -2 10 -4z m-156 -82 c10 -26 -4 -37 -25 -18 -15 13 -17
19 -7 26 19 11 25 10 32 -8z m-51 -181 c-12 -22 -29 -40 -43 -43 -28 -7 -35
-23 -18 -42 40 -43 49 -60 54 -98 6 -51 21 -83 35 -75 5 4 16 22 24 41 24 59
50 29 74 -88 9 -42 -7 -43 -34 -2 -20 30 -32 30 -88 -1 -54 -31 -64 -49 -35
-69 18 -13 24 -13 41 -1 25 17 46 9 40 -16 -5 -19 12 -49 28 -49 4 0 14 7 23
15 13 13 19 14 38 3 13 -7 25 -16 28 -19 3 -3 14 -9 24 -13 15 -5 17 -9 8 -18
-9 -9 -18 -8 -37 2 -23 12 -28 11 -53 -13 -16 -15 -35 -27 -44 -27 -9 0 -29
-29 -51 -75 -20 -41 -41 -75 -47 -75 -6 0 -9 -4 -6 -9 3 -4 -12 -22 -34 -40
-50 -40 -52 -61 -6 -61 19 0 38 5 41 10 4 6 10 8 14 6 4 -3 25 15 47 39 41 47
54 54 54 31 0 -8 36 -86 79 -173 l79 -160 -14 -59 c-7 -32 -16 -111 -20 -174
-9 -151 -13 -160 -65 -160 l-41 0 6 122 c3 68 8 155 11 193 l6 70 -66 88 c-36
48 -72 90 -81 94 -14 5 -54 -26 -54 -43 0 -19 -77 -154 -109 -190 -20 -23 -72
-103 -116 -177 -80 -136 -99 -154 -125 -122 -7 8 -19 15 -26 15 -8 0 -14 7
-14 15 0 16 70 161 99 204 84 126 102 158 117 206 10 30 20 52 23 51 3 -2 6
10 7 28 0 18 4 41 9 52 21 49 10 94 -25 94 -30 0 -124 82 -117 103 2 7 12 13
23 15 36 6 105 43 140 74 81 74 109 178 81 307 -8 39 -11 82 -6 110 6 39 15
52 70 102 68 61 83 62 52 2z m97 -15 c0 -21 5 -28 19 -28 24 0 31 -27 30 -110
-1 -78 -16 -140 -18 -75 -2 62 -19 123 -54 195 -18 36 -34 69 -36 74 -2 5 11
0 28 -10 23 -13 31 -26 31 -46z m-54 -13 c11 -36 7 -44 -14 -23 -13 13 -17 58
-4 58 4 0 12 -16 18 -35z m11 -75 c-1 -4 9 -17 23 -28 14 -11 22 -24 17 -28
-4 -4 -20 4 -35 19 l-28 27 4 -35 c2 -19 1 -52 -4 -73 -7 -35 -8 -33 -14 32
-6 65 -10 72 -45 103 -38 33 -37 47 1 18 23 -17 43 -20 26 -3 -26 26 -10 28
23 3 19 -15 33 -30 32 -35z m18 -210 c-9 -15 -85 -52 -97 -48 -5 2 12 16 39
31 51 28 68 33 58 17z m23 -91 c-2 -6 -8 -10 -13 -10 -5 0 -11 4 -13 10 -2 6
4 11 13 11 9 0 15 -5 13 -11z m56 -100 c-3 -5 -10 -7 -15 -3 -5 3 -7 10 -3 15
3 5 10 7 15 3 5 -3 7 -10 3 -15z m41 -9 c-3 -5 -10 -10 -16 -10 -5 0 -9 5 -9
10 0 6 7 10 16 10 8 0 12 -4 9 -10z m-131 -57 c-9 -64 -27 -103 -61 -134 -31
-30 -92 -63 -100 -55 -3 2 8 11 24 19 56 30 100 92 122 175 16 56 24 54 15 -5z
m-9 -414 l47 -66 -12 -59 c-6 -33 -15 -135 -21 -229 -5 -93 -11 -185 -12 -202
l-2 -33 -161 0 c-135 0 -163 3 -168 15 -3 9 -18 15 -36 15 -35 0 -75 34 -85
72 -4 15 -24 31 -56 46 -27 13 -49 30 -49 38 0 12 15 7 60 -17 33 -18 62 -30
63 -28 2 2 21 36 42 74 51 93 139 230 181 282 19 23 53 81 76 128 l41 86 23
-28 c13 -15 44 -58 69 -94z m791 -403 c26 -26 34 -42 34 -70 0 -49 -23 -92
-60 -111 -82 -42 -170 14 -170 111 0 28 8 44 34 70 29 29 41 34 81 34 40 0 52
-5 81 -34z m-1245 -125 c17 -24 39 -46 50 -48 40 -11 4 -24 -57 -21 -52 2 -64
6 -64 19 0 9 -16 31 -35 48 -40 34 -41 38 -20 68 l15 22 40 -23 c22 -12 54
-42 71 -65z m618 -13 c78 -51 74 -58 -29 -55 -49 1 -92 6 -96 10 -11 11 -13
50 -3 62 19 24 78 16 128 -17z"/>
<path d="M1829 711 c-35 -36 -38 -77 -8 -115 60 -76 169 -38 169 59 0 16 -12
38 -29 56 -41 40 -91 40 -132 0z m106 -31 c41 -45 -18 -110 -70 -76 -29 19
-32 51 -8 78 21 24 55 23 78 -2z"/>
<path d="M1874 655 c-4 -9 -2 -21 4 -27 15 -15 44 -1 40 19 -4 23 -36 29 -44
8z"/>
<path d="M1712 1829 c-99 -32 -152 -55 -149 -62 2 -7 24 -72 48 -145 35 -105
47 -131 59 -126 8 3 80 27 160 52 80 25 146 46 147 47 7 4 -93 285 -102 284
-5 0 -79 -23 -163 -50z m202 -116 c14 -45 26 -87 26 -92 0 -6 -33 -20 -72 -32
-40 -12 -99 -30 -131 -42 -34 -11 -61 -16 -66 -11 -14 15 -73 206 -68 218 5
12 97 50 147 60 14 3 45 12 70 19 45 15 45 15 57 -12 6 -14 23 -63 37 -108z"/>
<path d="M2055 1585 c-22 -8 -119 -39 -216 -70 l-176 -56 49 -147 c26 -81 58
-178 69 -217 12 -38 22 -71 24 -73 2 -2 429 126 442 133 5 3 -141 445 -146
444 -3 0 -24 -7 -46 -14z m94 -201 c34 -102 61 -192 61 -199 0 -8 -10 -17 -22
-20 -13 -4 -86 -27 -162 -51 -77 -25 -155 -46 -173 -47 -33 -2 -35 0 -52 53
-61 180 -101 313 -96 319 2 5 58 25 122 45 65 21 135 44 156 52 21 8 42 12 46
10 5 -3 17 1 27 9 10 8 22 15 25 15 4 0 34 -84 68 -186z"/>
<path d="M2040 1058 l-225 -71 30 -91 29 -91 38 -1 c55 -3 107 -39 130 -91 12
-28 25 -43 33 -39 7 2 82 25 166 51 84 25 155 47 157 50 8 7 -113 355 -123
354 -5 -1 -111 -33 -235 -71z m238 15 c5 -16 15 -48 22 -73 7 -25 18 -58 25
-75 7 -16 20 -53 28 -81 l15 -52 -66 -20 c-196 -61 -225 -68 -230 -52 -10 33
-90 97 -135 108 -42 11 -46 15 -61 59 -24 69 -21 82 20 99 20 8 48 17 63 19
15 2 44 10 65 19 21 9 48 18 60 21 36 7 120 32 146 43 36 15 37 15 48 -15z"/>
<path d="M750 457 c35 -17 1381 -17 1425 0 23 9 -145 11 -710 12 -578 0 -735
-3 -715 -12z"/>
<path d="M1048 395 c11 -6 167 -10 412 -10 245 0 401 4 412 10 11 7 -122 10
-412 10 -290 0 -423 -3 -412 -10z"/>
</g>
</svg>
